<!-- icon666.com - MILLIONS vector ICONS FREE --><svg xmlns="http://www.w3.org/2000/svg" viewBox="0 0 128 128"><g id="Glyph"><g id="Glyph-2" data-name="Glyph"><path d="M5.807,81.113a1.509,1.509,0,0,0,2.466-1.282C7.884,76.513,8.059,67.439,8,64.006a59.707,59.707,0,0,1,4.29-22.639C20.3,20.291,41.62,3.591,64.018,4c22.407-.407,43.735,16.3,51.735,37.39a59.835,59.835,0,0,1,4.283,22.663c-.033,2.961.06,13.932-.236,16.252V103a16.519,16.519,0,0,1-16.5,16.5H80v-1a4.505,4.505,0,0,0-4.5-4.5h-23a4.505,4.505,0,0,0-4.5,4.5v5a4.505,4.505,0,0,0,4.5,4.5h23a4.505,4.505,0,0,0,4.5-4.5v-1h23.3A19.523,19.523,0,0,0,122.8,103V80.569c5.009-4.772,4.761-10.837,4.485-19.414-.273-8.113-.47-13.978-5.086-18.577a15.784,15.784,0,0,0-2.461-1.982C111.345,17.7,88.3-.443,64.02,0,39.76-.452,16.69,17.7,8.311,40.565A15.69,15.69,0,0,0,5.8,42.578C1.186,47.177.988,53.039.715,61.155.439,69.326.24,75.23,4.515,79.884A14.364,14.364,0,0,0,5.807,81.113Z"></path><path d="M74.34,77.63a6.052,6.052,0,0,0-.05-8.47,6.117,6.117,0,0,0-8.5.05,2.541,2.541,0,0,1-1.76.93,2.665,2.665,0,0,1-1.75-.92,6,6,0,0,0-8.56,8.41,14.061,14.061,0,0,0,20.62,0Z"></path><path d="M80.99,68.97A6.137,6.137,0,0,0,87,62.79c-.02-1.66-.02-4.98,0-6.64a6.123,6.123,0,0,0-6.01-6.18,6.042,6.042,0,0,0-5.99,6v7A6.048,6.048,0,0,0,80.99,68.97Z"></path><path d="M53,55.97a6.042,6.042,0,0,0-5.99-6A6.13,6.13,0,0,0,41,56.15c.02,1.66.02,4.98,0,6.65a6.134,6.134,0,0,0,6.01,6.17,6.048,6.048,0,0,0,5.99-6Z"></path><path d="M75.5,111a7.527,7.527,0,0,1,6.817,4.395,1.5,1.5,0,0,0,1.76.821c20.55-5.631,32.858-21.01,32.923-41.141l.036-11.061A58.672,58.672,0,0,0,99.945,22.536C90.018,12.516,77.258,7,64.018,7s-26,5.518-35.927,15.537A58.673,58.673,0,0,0,11,64.005l.036,11.07C11.1,95.193,23.4,110.569,43.927,116.207a1.5,1.5,0,0,0,1.761-.82A7.524,7.524,0,0,1,52.5,111ZM64,23a6,6,0,1,1-6,6A6,6,0,0,1,64,23ZM24.679,56.127A17.974,17.974,0,0,1,42.5,40c10.75.03,10.75,6,21.5,6s10.75-5.97,21.5-6a17.974,17.974,0,0,1,17.821,16.127c2.576,24.116-14.842,42-39.321,42S22.1,80.243,24.679,56.127Z"></path></g></g></svg>