<!-- icon666.com - MILLIONS vector ICONS FREE --><svg id="Layer_1" viewBox="0 0 512 512" xmlns="http://www.w3.org/2000/svg"><path d="m243.934 88.9v-42.208c0-3.313 2.687-6 6-6s6 2.687 6 6v42.208c0 3.313-2.687 6-6 6s-6-2.687-6-6zm-82.746 25.387c1.111 1.925 3.128 3.001 5.202 3.001 1.018 0 2.049-.259 2.994-.805 2.87-1.657 3.853-5.327 2.196-8.196l-21.104-36.553c-1.657-2.87-5.326-3.854-8.196-2.196-2.87 1.657-3.853 5.327-2.196 8.196zm-95.519 42.255 36.553 21.104c.945.545 1.977.805 2.995.805 2.073 0 4.09-1.076 5.202-3.001 1.657-2.87.673-6.539-2.196-8.196l-36.553-21.104c-2.87-1.656-6.54-.673-8.196 2.196-1.657 2.87-.673 6.539 2.196 8.196zm-25.042 105.458h42.208c3.313 0 6-2.687 6-6s-2.687-6-6-6h-42.209c-3.313 0-6 2.687-6 6s2.687 6 6 6zm209.308 155.1c-3.313 0-6 2.687-6 6v42.208c0 3.313 2.687 6 6 6s6-2.687 6-6v-42.208c0-3.313-2.687-6-6-6zm88.747-19.387c-1.657-2.87-5.327-3.853-8.196-2.196-2.87 1.657-3.853 5.327-2.196 8.196l21.104 36.553c1.111 1.925 3.128 3.001 5.202 3.001 1.018 0 2.05-.259 2.995-.805 2.87-1.657 3.853-5.327 2.196-8.196l-21.104-36.553zm95.519-42.255-36.553-21.104c-2.869-1.656-6.539-.673-8.196 2.196-1.657 2.87-.673 6.539 2.196 8.196l36.553 21.104c.945.545 1.977.805 2.995.805 2.073 0 4.09-1.076 5.202-3.001 1.657-2.87.673-6.539-2.196-8.196zm25.042-105.458h-42.208c-3.313 0-6 2.687-6 6s2.687 6 6 6h42.208c3.313 0 6-2.687 6-6s-2.687-6-6-6zm-128.759-133.516c.945.545 1.977.805 2.995.805 2.073 0 4.09-1.076 5.202-3.001l21.104-36.553c1.657-2.87.673-6.539-2.196-8.196s-6.539-.674-8.196 2.196l-21.104 36.553c-1.657 2.87-.673 6.539 2.196 8.196zm171.516 81.888c0 20.641-16.793 37.434-37.434 37.434h-75.012c.954 6.663 1.445 13.434 1.445 20.194 0 77.784-63.281 141.065-141.065 141.065-10.566 0-21.084-1.189-31.307-3.505-6.577 10.786-18.454 18.003-31.984 18.003h-139.209c-20.641 0-37.434-16.793-37.434-37.434 0-19.998 15.762-36.383 35.515-37.385 4.834-29.511 30.675-51.895 61.114-51.895 1.77 0 3.523.083 5.259.232-1.995-9.522-3.019-19.275-3.019-29.081 0-77.784 63.281-141.065 141.065-141.065 36.156 0 70.09 13.438 96.294 37.979 3.189-10.303 8.992-19.661 16.983-27.146 11.479-10.753 26.452-16.676 42.16-16.676 30.439 0 56.28 22.384 61.114 51.895 19.753 1.002 35.515 17.388 35.515 37.386zm-289.923 175.757c0-14.024-11.41-25.434-25.434-25.434h-24.235c-3.146 0-5.758-2.43-5.984-5.568-1.873-25.95-23.745-46.277-49.795-46.277s-47.922 20.328-49.795 46.277c-.227 3.138-2.838 5.568-5.984 5.568h-3.416c-14.024 0-25.434 11.41-25.434 25.434s11.41 25.434 25.434 25.434h139.209c14.024 0 25.434-11.41 25.434-25.434zm165.348-138.324h-52.068c-20.641 0-37.434-16.793-37.434-37.434s16.793-37.435 37.434-37.435h11.872c-23.863-21.978-54.585-34.002-87.295-34.002-71.167 0-129.065 57.898-129.065 129.065 0 10.698 1.315 21.325 3.899 31.598 22.067 6.819 39.118 25.709 42.967 49.097h18.908c20.641 0 37.434 16.793 37.434 37.434 0 2.802-.319 5.529-.906 8.156 8.756 1.844 17.74 2.78 26.763 2.78 71.167 0 129.065-57.898 129.065-129.065 0-6.769-.531-13.549-1.574-20.194zm112.575-37.434c0-14.025-11.41-25.435-25.434-25.435h-3.416c-3.146 0-5.758-2.43-5.984-5.568-1.873-25.949-23.745-46.277-49.795-46.277-25.822 0-47.696 20.351-49.799 46.33-.252 3.116-2.854 5.516-5.98 5.516h-24.235c-14.024 0-25.434 11.41-25.434 25.435s11.41 25.434 25.434 25.434h139.209c14.024 0 25.434-11.41 25.434-25.434z"></path></svg>