<?xml version="1.0" encoding="UTF-8"?>
<svg version="1.1" viewBox="0 0 380.31 229.01" xmlns="http://www.w3.org/2000/svg">
 <g transform="translate(-11.875 -85.449)">
  <path d="m379.93 234.21-10.909-9.7186c-2.9441-0.69587-5.455-1.7382-10.467-0.78003l-42.154 12.8" fill="#b3b3b3" stroke="#000"/>
  <path d="m309.27 112.12c5.2601-7.5347 6.0152-16.862 4.4809-24.821-2.2534 0.93666-7.0091 6.763-7.6111 12.356-0.61167 6.2746 1.2228 9.1296 3.1302 12.465z" fill="#fff" stroke="#000" stroke-width=".5"/>
  <g fill="#f00" stroke="#000" stroke-width=".5">
   <path d="m53.939 196.53h-18.067l-15.625 9.44 20.878 0.45053 12.814-9.8906z"/>
   <path d="m45.15 206.62-29.297-0.81338-0.1628 4.0688h3.9063l7.3243 13.509 18.229-16.765z"/>
   <path d="m17.979 209.83 0.31568 11.604 7.8125 0.16305-5.2101-11.824-2.9181 0.0573z"/>
  </g>
  <path d="m386.77 269.81c0 24.658-19.989 44.646-44.646 44.646-24.658 0-44.646-19.989-44.646-44.646s19.989-44.646 44.646-44.646c24.658 0 44.646 19.989 44.646 44.646z"/>
  <path d="m367.44 269.81c0 13.986-11.338 25.324-25.324 25.324s-25.324-11.338-25.324-25.324 11.338-25.324 25.324-25.324 25.324 11.338 25.324 25.324z" fill="#fff" stroke="#fff" stroke-linecap="round" stroke-width=".5"/>
  <path d="m361.95 269.81c0 10.954-8.8798 19.834-19.834 19.834s-19.834-8.8798-19.834-19.834 8.8798-19.834 19.834-19.834 19.834 8.8799 19.834 19.834z" fill="#333" stroke="#fff" stroke-linecap="round" stroke-width=".5"/>
  <path d="m348.91 269.81c0 3.7524-3.0419 6.7943-6.7942 6.7943-3.7524 0-6.7943-3.0419-6.7943-6.7943s3.0419-6.7942 6.7943-6.7942 6.7942 3.0419 6.7942 6.7942z" fill="#999"/>
  <path d="m131.3 267c0 24.658-19.989 44.646-44.646 44.646-24.658 0-44.646-19.989-44.646-44.646s19.989-44.646 44.646-44.646c24.658 0 44.646 19.989 44.646 44.646z"/>
  <path d="m111.98 267c0 13.986-11.338 25.324-25.324 25.324s-25.324-11.338-25.324-25.324 11.338-25.324 25.324-25.324 25.324 11.338 25.324 25.324z" fill="#fff" stroke="#fff" stroke-linecap="round" stroke-width=".5"/>
  <path d="m106.49 267c0 10.954-8.8798 19.834-19.834 19.834s-19.834-8.8798-19.834-19.834 8.8799-19.834 19.834-19.834 19.834 8.8799 19.834 19.834z" fill="#333" stroke="#fff" stroke-linecap="round" stroke-width=".5"/>
  <path d="m93.449 267c0 3.7524-3.0419 6.7943-6.7942 6.7943-3.7524 0-6.7942-3.0419-6.7942-6.7943s3.0419-6.7942 6.7942-6.7942c3.7524 0 6.7942 3.0419 6.7942 6.7942z" fill="#999"/>
  <g fill="#f9f9f9" stroke="#999" stroke-width=".5">
   <path d="m94.258 266.02c13.35 0.51333 22.327 3.4838 35.678 1.3811l-0.23019 2.9923c-16.197 0.10187-25.062-1.3681-35.448-4.3734z"/>
   <path d="m135.92 268.09c0 1.3348-2.3187 2.4169-5.179 2.4169s-5.179-1.0821-5.179-2.4169 2.3187-2.4169 5.179-2.4169 5.179 1.0821 5.179 2.4169z" stroke-linecap="round"/>
  </g>
  <path d="m171.87 236.96 5.4119-0.12182 0.52914-1.6686c0.92679 1.4894 0.94676 2.89 0.0812 4.2318l-0.5285-1.3019-5.8598 0.16239 0.36607-1.3019z" fill="none" stroke="#000" stroke-linecap="round" stroke-linejoin="round" stroke-width=".5"/>
  <g fill="#666">
   <path d="m184.15 155.19 12.207-0.48826v14.486l-31.901-1.3021c6.677-2.4631 13.527-6.6385 19.694-12.695z"/>
   <path d="m121.81 167.56-0.16241-3.4178-45.248-0.16306v3.1742l45.41 0.40666z" stroke="#b3b3b3" stroke-width=".4"/>
  </g>
  <path d="m197.67 175.19-5.2084 3.3774c1.8578 6.6002 5.1715 5.7728 6.6936 2.1973-0.62516-0.0321-0.42359-0.17555-0.90856-0.15573-2.0007 3.2427-3.7407 1.3718-4.6259-2.8472l2.9385-2.009c1.2985 1.2334 1.7612 3.2185 1.6089 4.4935-0.0305 0.25549 0.71713-0.20322 0.78365 0.03 0.5294-1.4106 0.37783-3.6757-1.2817-5.0863z" fill="#808080"/>
  <g stroke-width=".5">
   <g fill="#007fff" stroke="#666">
    <path d="m339.45 201.7c5.0408-1.4134 35.389-1.7848 34.831-0.52897 5.3528 3.3879 5.7862 8.0359 4.3132 12.289-9.8568-6.4857-16.839-11.659-39.144-11.76z"/>
    <path d="m285.28 263.05c28.148 2.1791 35.184-16.977 55.703-23.478 19.388-5.68 34.13-2.6486 50.881-7.8261-2.6242-6.4476-20.719-39.777-62.555-27.917-28.213 9.3509-34.517 34.043-44.029 59.221z"/>
    <path d="m305.27 207.51-7.3243 23.356c9.225-15.161 17.96-22.021 26.32-25.075-2.5604-0.92199-6.0576-1.5629-6.6255-3.0826l8.6938-0.69461c-2.452-3.1648-2.6216-13.738-0.39294-17.535l-11.393-2.1159c-3.818-13.942-10.083-24.76-17.068-37.453 5.589 19.69 11.521 39.274 7.7904 62.6z"/>
    <path d="m328.26 193.27c0 4.8541-0.81067 8.7891-1.8107 8.7891s-1.8107-3.935-1.8107-8.7891 0.81067-8.7891 1.8107-8.7891 1.8107 3.935 1.8107 8.7891z" stroke-linecap="round" stroke-width=".636"/>
    <path d="m266.75 265.08c19.524-5.3334 31.254-31.439 37.924-53.967 7.2794-37.721-9.3425-72.538-15.876-87.304-10.197 6.5196-0.20386 22.413 4.4019 41.212 10.174 41.525 1.7641 63.465-26.45 100.06z"/>
   </g>
   <g fill="#0ff" stroke="#808080">
    <path d="m286.91 125.39c-7.1469-10.911 6.5746-12.324 13.148-8.2941l3.9063-0.65103c-0.53491-9.2763-1.2304-20.412 1.7904-29.785-8.9696 1.4482-14.586 5.2546-19.694 10.905l-17.334 6.2664c-2.19 7.1194 1.6815 11.447 2.5226 17.171 10.817 16.231 12.804 40.582 21.485 63.152 5.1889 36.322-21.357 55.87-27.832 59.408-17.637 9.5902-39.991 11.879-69.336 4.5573 5.7683 8.1568-3.7458 10.284-7.3531 14.625 25.855 1.8878 53.373 2.2042 78.805 1.9767 18.722-22.127 46.853-64.254 22.516-115.1-5.1657-10.792-6.735-16.805-2.6238-24.227z"/>
    <path d="m286.22 97.487c-3.3186 2.3142-4.4662 4.1369-5.127 6.3477"/>
    <path d="m188.89 262.77c4.7751-4.2589 11.971-7.5168 6.8936-14.591-53.463-11.681-13.12-65.284 4.8254-73.626 6.0384-4.1693-0.79273-7.3557-3.9875-6.9987-153.63-9.7777-180.58 61.361-184.49 90.333 0.40191 2.1558 2.576 2.4968 4.5698 2.8055 34.811-0.55426 125.17-0.68705 172.19 2.0772z"/>
   </g>
  </g>
  <path d="m30.176 259.35c2.8887 1.891 2.7043 5.6258 9.44 5.2089 10.967 31.721 49.778 29.324 59.245 2.9293 9.0675-1.3876 8.6879-6.3174 11.393-10.091l-80.078 1.9528z" fill="#666" stroke="#000"/>
  <g fill="#007fff">
   <path d="m304.65 86.706c2.3622-0.46674 4.7957-2.1989 8.9757 0.36419-3.9248 2.7882-12.165 12.942-4.3132 25.065-0.36457 4.959-3.5226 4.0501-6.149 4.2799-0.3168-10.144-1.3786-20.202 1.4864-29.709z" stroke="#000" stroke-width=".5"/>
   <g stroke="#808080">
    <path d="m266.01 264.75c-1.0377 1.2632-1.9078 2.413-2.8616 3.2612-2.4111 2.1301-76.231 3.1027-107.79 1.4907-8.9947-0.45886-12.654-4.6481-11.111-8.4069l121.77 3.655z" stroke-width=".5"/>
    <g stroke-width=".5">
     <path d="m93.321 191.96c42.611-10.841 62.305 6.746 64.454 23.763 4.0243 19.995-1.2645 34.047-7.4582 46.804-42.71-0.90424-86.995-0.80887-131.87-0.41635 18.59-52.65 51.88-63.591 74.87-70.15z"/>
     <path d="m82.904 197.65c-0.46559 3.2779-1.3406 16.889 1.7904 20.02 12.51-2.6968 24.653-2.4536 36.296 1.7904 5.0871-6.9195 6.4495-14.46 1.1393-23.112-13.052-5.1537-26.987-5.2619-39.226 1.3021z"/>
     <path d="m127.01 262.11 6.6732-24.089c2.1865-6.5166-1.0858-10.151-5.8594-11.719-29.698-7.3692-50.11-5.5222-72.429-0.4883"/>
    </g>
    <g stroke-width=".3">
     <path d="m197 169.33c-40.789 1.4656-7.0902 8.3158-122.4 4.3945l-0.16276-5.3711c41.791 0.48181 83.332 0.92207 122.56 0.97659z"/>
     <path d="m74.603 173.57c-1.6609 5.4692-5.9739 10.474-10.26 15.409 11.102-5.1612 22.941-10.532 41.184-14.432l-30.925-0.97644z"/>
    </g>
   </g>
  </g>
  <path d="m131.17 167.43c-0.21849-0.99507-0.6026-1.5668 0.20302-2.7668 3.2522-1.0757 6.9748-1.0796 9.9286 0.0818 0.7199 1.1118 0.67737 1.8581 0.20365 2.9699l-10.335-0.28488z" fill="#e6e6e6" stroke="#808080" stroke-width=".5"/>
  <path d="m67.123 140.38c0.25845-0.39893 3.7549-0.44857 3.9469 0.0406l-0.0406 21.118c-0.15211 4.3091 0.58392 6.2291 3.8657 6.3477l25.35 0.32549c0.95774 0.60905 0.99126 2.8867 0.12246 3.7027l-25.594-0.36607c-5.9694-0.18886-7.7444-3.1826-7.6496-8.6266v-22.542z" fill="#f9f9f9" stroke="#999" stroke-width=".3"/>
  <g stroke="#b3b3b3">
   <path d="m120.54 164.24 1.1118-2.0579 0.28745-17.056c-0.0793-0.89456-0.48015-1.3851-1.5881-1.5114l-43.157-0.78242c-1.1569 0.45437-1.2033 1.0473-1.153 1.6525l0.68832 18.348 1.1395 1.0718 42.671 0.33516z" stroke-width=".4"/>
   <g stroke-width=".5">
    <path d="m181.87 159.74c0.0309-5.4544 0.43954-10.074-3.7433-15.95 12.307 0.78373 18.399-0.40538 27.507-3.4184 3.9237-0.27324 8.7917 16.053 3.2548 19.206l-27.018 0.16238z"/>
    <path d="m178.37 143.79c-10.287-0.37449-23.047-6.0982-34.587-11.068 8.4858 7.9967 9.4308 14.204 10.742 19.043 8.9046 8.1002 17.922 10.256 27.425 7.8939 0.0327-6.0114-0.14517-11.592-3.5808-15.869z"/>
    <path d="m144.43 133.21c-3.5036-5.1509-11.985-7.6652-16.927-0.97655 3.7017 9.3952 18.168 21.172 27.018 19.857 4.9675-3.5673-13.484-22.273-10.091-18.88z"/>
   </g>
  </g>
  <g fill="#4d4d4d" stroke="#000">
   <path d="m255.15 112.79 14.364-3.1738c3.76 0.58211 5.0033 5.361 0.65094 7.5685l-13.672 2.9704-1.3431-7.365z"/>
  </g>
  <path d="m273.91 109.53 1.3834 2.1973-6.9174 9.196c-2.4614 0.7264-2.2296 1.6684-0.81382 3.0925 2.4822 0.30094 1.5599-1.0844 1.7904-2.4414l10.335-10.742c-2.0211-4.1802-3.9497-1.3627-5.778-1.3021z"/>
  <path d="m271.39 110.18 6.4291-1.8718c2.1252 1.2027 2.4559 4.1136 0.89517 4.9642l-6.5104 2.8484c1.2883-1.6232 1.7413-3.0365-0.81382-5.9408z" fill="none" stroke="#000"/>
  <path d="m257.76 116.39c0.15029 2.128-0.61823 3.916-1.7166 3.9936-1.0983 0.0776-2.1105-1.5846-2.2608-3.7126-0.15032-2.128 0.61818-3.916 1.7165-3.9935 1.0983-0.0776 2.1106 1.5846 2.2609 3.7126z" stroke="#000" stroke-linecap="round" stroke-width="1.306"/>
  <g fill="none" stroke="#000">
   <path d="m51.059 265.69 40.039 0.32547-1.6274 2.2789-37.761-0.32547-0.65094-2.2789z"/>
   <path d="m53.337 270.89 32.878 0.65094-1.9535 3.2554-29.297-0.65094-1.628-3.2554z"/>
   <path d="m58.546 278.06h20.834l-4.8828 3.5808-13.346-0.32547-2.6044-3.2554z"/>
  </g>
  <text x="70.5" y="224" font-family="Arial" font-size="24px" stroke-width="0" text-anchor="middle"/>
 </g>
</svg>
