<!-- icon666.com - MILLIONS vector ICONS FREE --><svg version="1.1" id="Capa_1" xmlns="http://www.w3.org/2000/svg" xmlns:xlink="http://www.w3.org/1999/xlink" x="0px" y="0px" viewBox="0 0 512 512" style="enable-background:new 0 0 512 512;" xml:space="preserve"><g><g><path d="M256,0c-57.897,0-105,47.103-105,105c0,9.836,0,174.521,0,181c0,57.897,47.103,105,105,105c57.897,0,105-47.103,105-105 c0-0.377,0-159.731,0-181C361,47.103,313.897,0,256,0z M331,286c0,41.355-33.645,75-75,75c-41.355,0-75-33.645-75-75v-15h150V286z M331,120h-60v30h60v31h-60v30h60v30H181v-30h60v-30h-60v-31h60v-30h-60v-15c0-36.219,25.808-66.522,60-73.491V90h30V31.509 c34.192,6.968,60,37.271,60,73.491V120z"></path></g></g><g><g><path d="M391,226v60c0,74.439-60.561,135-135,135s-135-60.561-135-135v-60H91v60c0,85.925,66.023,156.707,150,164.311V482h-60v30 h150v-30h-60v-31.689c83.977-7.604,150-78.386,150-164.311v-60H391z"></path></g></g></svg>