<!-- icon666.com - MILLIONS vector ICONS FREE --><svg id="Layer_1" enable-background="new 0 0 512 512" viewBox="0 0 512 512" xmlns="http://www.w3.org/2000/svg"><g id="XMLID_1_"><g id="XMLID_1604_"><path id="XMLID_2284_" d="m476 256c0-121.5-98.5-220-220-220s-220 98.5-220 220 98.5 220 220 220 220-98.5 220-220" fill="#1f3e75"></path><path id="XMLID_2283_" d="m372.6 69.4c21.2 33.8 33.4 73.8 33.4 116.6 0 121.5-98.5 220-220 220-42.8 0-82.8-12.2-116.6-33.4 38.9 62.1 107.9 103.4 186.6 103.4 121.5 0 220-98.5 220-220 0-78.7-41.3-147.7-103.4-186.6" fill="#15294e"></path><path id="XMLID_2280_" d="m256 41c-118.6 0-215 96.4-215 215s96.4 215 215 215 215-96.4 215-215-96.4-215-215-215m0 440c-60.1 0-116.6-23.4-159.1-65.9s-65.9-99-65.9-159.1 23.4-116.6 65.9-159.1 99-65.9 159.1-65.9 116.6 23.4 159.1 65.9 65.9 99 65.9 159.1-23.4 116.6-65.9 159.1-99 65.9-159.1 65.9" fill="#d7d4c1"></path><path id="XMLID_2279_" clip-rule="evenodd" d="m251 36h10v440h-10z" fill="#d7d4c1" fill-rule="evenodd"></path><path id="XMLID_2278_" d="m256 101c-50.3 0-97.7-4.5-137.1-13l2.1-9.8c38.7 8.4 85.4 12.8 135 12.8s96.3-4.4 135-12.7l2.1 9.8c-39.4 8.4-86.8 12.9-137.1 12.9" fill="#d7d4c1"></path><path id="XMLID_2275_" d="m256 41c-27.4 0-53.4 21.9-73.3 61.7-20.4 40.8-31.7 95.3-31.7 153.3s11.3 112.5 31.7 153.3c19.9 39.8 45.9 61.7 73.3 61.7s53.4-21.9 73.3-61.7c20.4-40.8 31.7-95.3 31.7-153.3s-11.3-112.5-31.7-153.3c-19.9-39.8-45.9-61.7-73.3-61.7m0 440c-31.4 0-60.6-23.9-82.3-67.2-21.1-42.2-32.7-98.3-32.7-157.8s11.6-115.6 32.7-157.8c21.7-43.3 50.9-67.2 82.3-67.2s60.6 23.9 82.3 67.2c21.1 42.2 32.7 98.3 32.7 157.8s-11.6 115.6-32.7 157.8c-21.7 43.3-50.9 67.2-82.3 67.2" fill="#d7d4c1"></path><path id="XMLID_2274_" d="m487 356h-462c-11 0-20-9-20-20v-160c0-11 9-20 20-20h462c11 0 20 9 20 20v160c0 11-9 20-20 20" fill="#db3529"></path><path id="XMLID_2273_" d="m507 336v-160c0-11-9-20-20-20h-81l-150 200h231c11 0 20-9 20-20" fill="#b4271e"></path><path id="XMLID_2272_" d="m467 326h-422c-5.5 0-10-4.5-10-10v-120c0-5.5 4.5-10 10-10h422c5.5 0 10 4.5 10 10v120c0 5.5-4.5 10-10 10" fill="#e25d56"></path><path id="XMLID_2271_" d="m467 186h-83.5l-105 140h188.5c5.5 0 10-4.5 10-10v-120c0-5.5-4.5-10-10-10" fill="#db3529"></path><path id="XMLID_2270_" d="m391 433.7c-38.8-8.3-85.5-12.7-135-12.7-49.6 0-96.3 4.4-135 12.7l-2.1-9.8c39.5-8.5 86.9-13 137.1-13 50.3 0 97.7 4.5 137.1 13z" fill="#d7d4c1"></path><g fill="#eaeae0"><path id="XMLID_2269_" d="m161 301c-1.7 0-3.3-.9-4.2-2.3l-40.8-65.3v67.6h-10v-85c0-2.2 1.5-4.2 3.6-4.8s4.4.3 5.6 2.2l40.8 65.2v-67.6h10v85c0 2.2-1.5 4.2-3.6 4.8-.5.1-.9.2-1.4.2"></path><path id="XMLID_2268_" clip-rule="evenodd" d="m186 251h60v10h-60z" fill-rule="evenodd"></path><path id="XMLID_2267_" d="m246 301h-55c-2.8 0-5-2.2-5-5v-80c0-2.8 2.2-5 5-5h55v10h-50v70h50z"></path><path id="XMLID_2266_" d="m321 301c-1.7 0-3.3-.9-4.2-2.3l-20.8-33.3-20.8 33.2c-1.2 1.9-3.5 2.8-5.6 2.2s-3.6-2.6-3.6-4.8v-85h10v67.6l15.8-25.2c.9-1.5 2.5-2.3 4.2-2.3s3.3.9 4.2 2.3l15.8 25.2v-67.6h10v85c0 2.2-1.5 4.2-3.6 4.8-.5.1-.9.2-1.4.2"></path><path id="XMLID_2265_" d="m381 301h-35v-10h35c8.3 0 15-6.7 15-15s-6.7-15-15-15h-10c-13.8 0-25-11.2-25-25s11.2-25 25-25h35v10h-35c-8.3 0-15 6.7-15 15s6.7 15 15 15h10c13.8 0 25 11.2 25 25s-11.2 25-25 25"></path></g></g></g></svg>