<!-- icon666.com - MILLIONS vector ICONS FREE --><svg viewBox="0 0 512 512" xmlns="http://www.w3.org/2000/svg"><g id="Layer_9" data-name="Layer 9"><path d="m66.37 65.37v138l68.63-69.37a8.49 8.49 0 0 1 13 1.14l110.23 158.95 61.44-60.58a8.51 8.51 0 0 1 12.58.71l95.08 117.68h20.3v-286.53zm289.23 149.83a57.8 57.8 0 1 1 57.8-57.8 57.87 57.87 0 0 1 -57.8 57.8z" fill="#73d0f4"></path><g fill="#3d6889"><path d="m355.6 99.6a57.8 57.8 0 1 0 57.8 57.8 57.87 57.87 0 0 0 -57.8-57.8zm0 98.6a40.8 40.8 0 1 1 40.8-40.8 40.84 40.84 0 0 1 -40.8 40.8z"></path><path d="m489 15.5h-464a8.51 8.51 0 0 0 -8.5 8.5v464a8.51 8.51 0 0 0 8.5 8.5h464a8.51 8.51 0 0 0 8.5-8.5v-464a8.51 8.51 0 0 0 -8.5-8.5zm-8.5 464h-447v-447h447z"></path><path d="m57.87 429.8h398.26a8.5 8.5 0 0 0 8.5-8.5v-364.43a8.49 8.49 0 0 0 -8.5-8.5h-398.26a8.49 8.49 0 0 0 -8.5 8.5v364.43a8.5 8.5 0 0 0 8.5 8.5zm8.5-364.43h381.26v286.53h-20.3l-95.08-117.68a8.51 8.51 0 0 0 -12.58-.71l-61.44 60.58-110.23-158.93a8.49 8.49 0 0 0 -13-1.16l-68.63 69.41zm0 162.22 73.48-74.34 110.15 158.83a8.5 8.5 0 0 0 13 1.21l61.95-61.08 91.74 113.53a8.48 8.48 0 0 0 6.61 3.16h24.36v43.9h-381.29z"></path></g></g></svg>