<!-- icon666.com - MILLIONS vector ICONS FREE --><svg viewBox="-21 -66 681.33466 681" xmlns="http://www.w3.org/2000/svg"><path d="m446.175781 213.445312c23.652344-22.894531 38.386719-54.960937 38.386719-90.40625 0-69.402343-56.464844-125.867187-125.867188-125.867187-45.222656 0-84.9375 23.972656-107.136718 59.875-22.191406-35.902344-61.914063-59.875-107.132813-59.875-69.402343 0-125.863281 56.464844-125.863281 125.867187 0 34.269532 13.773438 65.382813 36.066406 88.101563h-.554687c-29.769531 0-53.9921878 24.21875-53.9921878 53.988281v227.59375c0 29.769532 24.2226568 53.992188 53.9921878 53.992188h376.496093c29.769532 0 53.996094-24.222656 53.996094-53.992188v-227.59375c0-24.34375-16.203125-44.972656-38.390625-51.683594zm-87.480469-147.800781c31.648438 0 57.394532 25.742188 57.394532 57.394531 0 31.648438-25.746094 57.398438-57.394532 57.398438-31.648437 0-57.394531-25.75-57.394531-57.398438 0-31.652343 25.746094-57.394531 57.394531-57.394531zm-214.269531 0c31.652344 0 57.402344 25.742188 57.402344 57.394531 0 31.648438-25.75 57.398438-57.402344 57.398438-31.648437 0-57.398437-25.75-57.398437-57.398438 0-31.652343 25.75-57.394531 57.398437-57.394531zm107.132813 123.390625c4.953125 8.007813 10.78125 15.417969 17.34375 22.105469h-34.683594c6.5625-6.6875 12.390625-14.097656 17.339844-22.105469zm88.992187 253.964844c0 10.429688-8.457031 18.886719-18.882812 18.886719h-215.84375c-10.425781 0-18.878907-8.457031-18.878907-18.886719v-96.9375c0-10.429688 8.453126-18.886719 18.878907-18.886719h215.84375c10.425781 0 18.882812 8.457031 18.882812 18.886719zm0 0"></path><path d="m124.707031 364.945312h178.074219v59.171876h-178.074219zm0 0"></path><path d="m631.867188 259.449219c-4.410157-3.585938-10.203126-4.996094-15.765626-3.839844l-93.773437 19.511719v206.398437l93.773437 19.507813c1.28125.269531 2.566407.394531 3.847657.394531 4.304687 0 8.519531-1.46875 11.917969-4.230469 4.410156-3.585937 6.96875-8.964844 6.96875-14.648437v-208.445313c0-5.683594-2.558594-11.0625-6.96875-14.648437zm0 0"></path><path d="m358.695312 103.40625c-10.824218 0-19.632812 8.804688-19.632812 19.632812 0 10.824219 8.808594 19.632813 19.632812 19.632813 10.828126 0 19.632813-8.808594 19.632813-19.632813 0-10.828124-8.804687-19.632812-19.632813-19.632812zm0 0"></path><path d="m144.425781 103.40625c-10.824219 0-19.628906 8.804688-19.628906 19.632812 0 10.824219 8.804687 19.632813 19.628906 19.632813 10.828125 0 19.632813-8.808594 19.632813-19.632813 0-10.828124-8.804688-19.632812-19.632813-19.632812zm0 0"></path></svg>