<!-- icon666.com - MILLIONS vector ICONS FREE --><svg viewBox="0 -1 512 512" xmlns="http://www.w3.org/2000/svg"><path d="m494.476562 269.4375c-9.730468-9.9375-22.285156-16.171875-35.886718-17.9375-.414063-2.667969-.9375-5.324219-1.554688-7.949219-5.382812-22.816406-18.472656-43.5-36.863281-58.242187-2.949219-2.363282-6.03125-4.539063-9.203125-6.5625-1.246094-17.691406-8.714844-34.214844-21.308594-46.90625-12.015625-12.101563-27.554687-19.585938-44.308594-21.457032-.542968-3.710937-1.242187-7.40625-2.101562-11.035156-6.5625-27.824218-22.527344-53.046875-44.953125-71.027344-22.777344-18.261718-51.429687-28.320312-80.679687-28.320312-27.402344 0-53.574219 8.472656-75.6875 24.507812-3.390626 2.457032-4.144532 7.195313-1.6875 10.582032 2.457031 3.390625 7.195312 4.148437 10.582031 1.6875 19.511719-14.140625 42.609375-21.617188 66.792969-21.617188 26.1875 0 50.808593 8.640625 71.195312 24.988282 19.800781 15.875 33.894531 38.132812 39.683594 62.683593 1.183594 5.003907 2.03125 10.140625 2.519531 15.265625.289063 3.851563 3.460937 6.910156 7.382813 7 27.347656.625 49.851562 19.53125 55.957031 45.015625-12.722657-5.238281-26.445313-8.023437-40.339844-8.023437-38.457031 0-73.269531 20.410156-92.089844 53.617187-2.078125-.164062-4.148437-.25-6.1875-.25-23.953125 0-45.441406 10.710938-59.972656 27.578125h-99.671875c-44.628906 0-80.933594-36.308594-80.933594-80.9375 0-44.636718 36.304688-80.949218 80.933594-80.949218 3.828125 0 7.8125.296874 11.847656.875 3.222656.460937 6.382813-1.1875 7.847656-4.09375 4.089844-8.121094 9.167969-15.761719 15.085938-22.707032 2.714844-3.183594 2.335938-7.96875-.851562-10.683594-3.1875-2.71875-7.96875-2.335937-10.683594.851563-5.546875 6.503906-10.441406 13.550781-14.589844 21-2.925781-.265625-5.824219-.398437-8.65625-.398437-52.984375 0-96.09375 43.109374-96.09375 96.101562 0 52.988281 43.109375 96.097656 96.09375 96.097656h89.394531c-5.683593 10.914063-8.917969 23.300782-8.917969 36.433594 0 43.65625 35.515626 79.167969 79.167969 79.167969h102.570313c4.183594 0 7.578125-3.390625 7.578125-7.578125s-3.394531-7.578125-7.578125-7.578125h-102.570313c-35.296875 0-64.007812-28.714844-64.007812-64.011719 0-35.292969 28.710937-64.007812 64.007812-64.007812 3.054688 0 6.203125.230468 9.363281.6875 3.21875.464843 6.386719-1.179688 7.855469-4.089844 15.519531-30.820313 46.582031-49.964844 81.058594-49.964844 20.847656 0 40.445313 6.875 56.671875 19.886719 15.761719 12.632812 26.984375 30.355469 31.59375 49.894531.941406 3.992188 1.613281 8.070312 2 12.121094.289062 3.855468 3.460938 6.914062 7.382812 7.003906 12.125.277344 23.480469 5.210938 31.980469 13.886719 8.511719 8.691406 13.195313 20.175781 13.195313 32.339843 0 25.503907-20.753906 46.253907-46.261719 46.253907h-61.953125c-4.183594 0-7.578125 3.390625-7.578125 7.578125s3.394531 7.578125 7.578125 7.578125h61.953125c33.867187 0 61.421875-27.546875 61.421875-61.410157 0-16.152343-6.222656-31.40625-17.523438-42.945312zm0 0"></path><path d="m422.164062 386.335938-100.804687 111.496093c-2.808594 3.105469-2.566406 7.898438.539063 10.703125 1.449218 1.3125 3.265624 1.960938 5.078124 1.960938 2.070313 0 4.128907-.84375 5.625-2.496094l100.804688-111.5c2.808594-3.101562 2.566406-7.894531-.539062-10.703125-3.101563-2.804687-7.894532-2.566406-10.703126.539063zm0 0"></path><path d="m362.089844 385.855469c-3.105469-2.804688-7.898438-2.566407-10.707032.539062l-100.753906 111.4375c-2.804687 3.105469-2.566406 7.898438.539063 10.703125 1.453125 1.3125 3.269531 1.960938 5.082031 1.960938 2.066406 0 4.128906-.84375 5.625-2.496094l100.753906-111.4375c2.804688-3.105469 2.5625-7.898438-.539062-10.707031zm0 0"></path><path d="m291.359375 385.859375c-3.105469-2.808594-7.894531-2.570313-10.703125.535156l-100.765625 111.4375c-2.808594 3.105469-2.566406 7.898438.539063 10.703125 1.449218 1.3125 3.265624 1.960938 5.078124 1.960938 2.070313 0 4.128907-.84375 5.625-2.496094l100.765626-111.4375c2.804687-3.105469 2.566406-7.898438-.539063-10.703125zm0 0"></path><path d="m221.8125 384.53125c-3.109375-2.804688-7.898438-2.566406-10.707031.539062l-101.945313 112.761719c-2.808594 3.105469-2.566406 7.898438.539063 10.703125 1.449219 1.3125 3.269531 1.960938 5.082031 1.960938 2.066406 0 4.125-.84375 5.625-2.496094l101.945312-112.761719c2.804688-3.105469 2.5625-7.898437-.539062-10.707031zm0 0"></path><path d="m177.164062 355.691406c-3.105468-2.808594-7.898437-2.566406-10.703124.539063l-128.03125 141.601562c-2.808594 3.105469-2.566407 7.898438.539062 10.703125 1.449219 1.3125 3.269531 1.960938 5.078125 1.960938 2.070313 0 4.128906-.84375 5.625-2.496094l128.03125-141.601562c2.808594-3.105469 2.566406-7.898438-.539063-10.707032zm0 0"></path><path d="m170.089844 285.292969c-3.105469-2.808594-7.898438-2.566407-10.703125.539062l-157.367188 174.042969c-2.808593 3.105469-2.566406 7.894531.539063 10.703125 1.449218 1.3125 3.265625 1.957031 5.082031 1.957031 2.066406 0 4.125-.839844 5.621094-2.496094l157.367187-174.039062c2.808594-3.105469 2.566406-7.898438-.539062-10.707031zm0 0"></path><path d="m7.640625 394.296875c2.066406 0 4.125-.839844 5.621094-2.496094l100.21875-110.835937c2.808593-3.105469 2.566406-7.898438-.539063-10.707032-3.105468-2.808593-7.898437-2.566406-10.703125.539063l-100.21875 110.839844c-2.808593 3.105469-2.566406 7.898437.539063 10.703125 1.449218 1.3125 3.265625 1.957031 5.082031 1.957031zm0 0"></path></svg>