<!-- icon666.com - MILLIONS vector ICONS FREE --><svg viewBox="0 0 451 451.06667" xmlns="http://www.w3.org/2000/svg"><path d="m.0351562 451.066406 25.9999998-127.867187c-15.335937-31.066407-23.070312-64.398438-23.070312-99.199219 0-123.464844 100.535156-224 224-224 123.46875 0 224 100.535156 224 224s-100.53125 224-224 224c-34.796875 0-68.132813-7.734375-99.066406-23.066406zm130.9296878-48.53125 3.335937 1.730469c28.800781 14.800781 60 22.402344 92.664063 22.402344 111.734375 0 202.667968-90.933594 202.667968-202.667969s-90.933593-202.667969-202.667968-202.667969c-111.730469 0-202.664063 90.933594-202.664063 202.667969 0 32.667969 7.464844 63.867188 22.398438 92.667969l1.734375 3.332031-21.066406 103.601562zm0 0"></path><path d="m226.964844 352c-54.265625 0-101.464844-31.066406-120.265625-79.066406l19.867187-7.734375c15.46875 39.734375 54.933594 65.46875 100.398438 65.46875 45.46875 0 84.800781-25.734375 100.402344-65.46875l19.867187 7.734375c-18.800781 48-66 79.066406-120.269531 79.066406zm0 0"></path><path d="m345.101562 181.332031h-21.335937c0-4.265625-9.332031-10.664062-22.132813-10.664062-12.800781 0-22.132812 6.398437-22.132812 10.664062h-21.332031c0-18 19.066406-32 43.464843-32 24.402344 0 43.46875 14 43.46875 32zm0 0"></path><path d="m195.765625 181.332031h-21.332031c0-4.265625-9.332032-10.664062-22.132813-10.664062s-22.132812 6.398437-22.132812 10.664062h-21.335938c0-18 19.066407-32 43.46875-32 24.398438 0 43.464844 14 43.464844 32zm0 0"></path></svg>