<!-- icon666.com - MILLIONS vector ICONS FREE --><svg viewBox="0 -48 480 480" xmlns="http://www.w3.org/2000/svg"><path d="m472 288v40c-.027344 8.824219-7.175781 15.972656-16 16h-432c-8.824219-.027344-15.972656-7.175781-16-16v-40zm0 0" fill="#898890"></path><path d="m456 24v264h-432v-264c.027344-8.824219 7.175781-15.972656 16-16h400c8.824219.027344 15.972656 7.175781 16 16zm0 0" fill="#bdfdff"></path><path d="m288 288v16c-.027344 8.824219-7.175781 15.972656-16 16h-64c-8.824219-.027344-15.972656-7.175781-16-16v-16zm0 0" fill="#e0e0e2"></path><path d="m328 272h40v80c0 13.253906-10.746094 24-24 24s-24-10.746094-24-24v-80zm0 0" fill="#a78966"></path><path d="m360 246.800781v25.199219h-32v-25.199219c10.605469 1.597657 21.394531 1.597657 32 0zm0 0" fill="#898890"></path><path d="m344 40c54.421875-.128906 99.742188 41.71875 103.9375 95.976562 4.199219 54.261719-34.144531 102.582032-87.9375 110.824219-10.605469 1.597657-21.394531 1.597657-32 0-53.792969-8.242187-92.136719-56.5625-87.9375-110.824219 4.195312-54.257812 49.515625-96.105468 103.9375-95.976562zm0 0" fill="#78b9eb"></path><path d="m264 144c.046875 44.164062 35.835938 79.953125 80 80v-16c-35.347656 0-64-28.652344-64-64s28.652344-64 64-64v-16c-44.164062.046875-79.953125 35.835938-80 80zm0 0"></path><path d="m472 280h-8v-256c0-13.253906-10.746094-24-24-24h-400c-13.253906 0-24 10.746094-24 24v256h-8c-4.417969 0-8 3.582031-8 8v40c0 13.253906 10.746094 24 24 24h288c0 17.671875 14.328125 32 32 32s32-14.328125 32-32h80c13.253906 0 24-10.746094 24-24v-40c0-4.417969-3.582031-8-8-8zm-96 0v-8c0-4.417969-3.582031-8-8-8v-10.65625c36.269531-8.042969 66.21875-33.496094 80-68v94.65625zm-32-40c-53.019531 0-96-42.980469-96-96s42.980469-96 96-96 96 42.980469 96 96c-.058594 52.996094-43.003906 95.941406-96 96zm-8 15.59375c2.65625.191406 5.296875.40625 8 .40625s5.34375-.214844 8-.40625v8.40625h-16zm-304-231.59375c0-4.417969 3.582031-8 8-8h400c4.417969 0 8 3.582031 8 8v78.671875c-19.683594-49.582031-71.621094-78.386719-124.105469-68.828125-52.484375 9.554688-90.933593 54.816406-91.878906 108.152344-.949219 53.339844 35.871094 99.9375 87.984375 111.347656v10.65625c-4.417969 0-8 3.582031-8 8v8h-280zm168 272h80v8c0 4.417969-3.582031 8-8 8h-64c-4.417969 0-8-3.582031-8-8zm-176 40c-4.417969 0-8-3.582031-8-8v-32h168v8c0 13.253906 10.746094 24 24 24h64c13.253906 0 24-10.746094 24-24v-8h16v40zm336 16c0 8.835938-7.164062 16-16 16s-16-7.164062-16-16v-72h32zm104-24c0 4.417969-3.582031 8-8 8h-80v-40h88zm0 0"></path></svg>