<!-- icon666.com - MILLIONS vector ICONS FREE --><svg version="1.1" id="Capa_1" xmlns="http://www.w3.org/2000/svg" xmlns:xlink="http://www.w3.org/1999/xlink" x="0px" y="0px" viewBox="0 0 512.001 512.001" style="enable-background:new 0 0 512.001 512.001;" xml:space="preserve"><path style="fill:#FA5B1E;" d="M303.587,86.772c44.242,0,80.149,35.907,80.149,80.149c0,72.134-80.149,152.283-80.149,152.283 s-80.149-80.149-80.149-152.283C223.438,122.68,259.346,86.772,303.587,86.772z"></path><path style="fill:#EF4126;" d="M331.639,91.925c-8.743-3.276-18.169-5.153-28.052-5.153c-44.242,0-80.149,35.906-80.149,80.149 c0,72.134,80.149,152.283,80.149,152.283s12.739-12.755,28.052-32.634c-23.111-30.002-52.097-76.263-52.097-119.65 C279.543,132.562,301.241,103.315,331.639,91.925z"></path><path style="fill:#F1F2F2;" d="M303.587,134.862c17.713,0,32.06,14.347,32.06,32.06s-14.347,32.06-32.06,32.06 c-17.713,0-32.06-14.347-32.06-32.06C271.527,149.208,285.874,134.862,303.587,134.862z"></path><path style="fill:#23D7DE;" d="M503.8,247.071c0.08,2.645,0.16,5.37,0.16,8.015c0,134.489-106.919,244.053-240.367,248.302 l7.935-15.87l16.029-8.015v-16.029l-40.074-40.074l24.045-24.045l32.06,24.045l72.134-40.074l-16.029-32.06l8.015-40.074 l-37.67-22.602c16.43-20.999,36.228-50.574,46.566-81.592h39.193l16.029-16.029l32.06,16.029v32.06L503.8,247.071z"></path><g><path style="fill:#0BDE9D;" d="M359.692,351.264l16.029,32.06l-72.134,40.074l-32.06-24.045l-24.045,24.045l40.074,40.074v16.029 l-16.029,8.015l-7.935,15.87c-2.725,0.08-5.37,0.16-8.095,0.16C118.283,503.547,7.036,392.301,7.036,255.085 c0-22.121,2.886-43.521,8.335-63.959l47.768,23.884l40.074,8.015l16.029,40.074l16.03,16.03h40.074l8.015,64.119h32.06 l16.029-24.045l24.045-8.015l28.373-14.186c11.301,13.786,19.717,22.202,19.717,22.202s11.862-11.862,26.449-30.617l37.67,22.602 L359.692,351.264z"></path><path style="fill:#0BDE9D;" d="M503.8,247.071l-39.915-8.015v-32.06l-32.06-16.029l-16.029,16.029h-39.193 c4.408-13.305,7.133-26.85,7.133-40.074c0-44.243-35.907-80.149-80.149-80.149c-35.907,0-66.364,23.724-76.542,56.345l-3.606-0.24 h-32.06l-16.029-16.03V94.787l8.015-32.06l-16.029-8.015V22.733c27.409-10.419,57.145-16.11,88.162-16.11 C390.068,6.624,499.632,113.542,503.8,247.071z"></path></g><path style="fill:#23D7DE;" d="M283.871,297.003l-28.373,14.186l-24.045,8.015l-16.029,24.045h-32.06l-8.015-64.119h-40.074 l-16.03-16.03l-16.029-40.074l-40.074-8.015l-47.768-23.884C35.971,113.542,93.117,50.865,167.335,22.732v31.979l16.029,8.015 l-8.015,32.06v32.06l16.029,16.03h32.06l3.606,0.24c-2.325,7.534-3.606,15.468-3.606,23.804c0,15.95,3.927,32.3,10.019,48.089 l6.973,16.03C253.173,257.249,270.565,280.893,283.871,297.003z"></path><g><path style="fill:#00B493;" d="M95.2,255.085c0-11.272,0.768-22.352,2.224-33.218l-34.283-6.857l-47.769-23.884 c-5.451,20.438-8.335,41.837-8.335,63.959c0,137.215,111.246,248.462,248.462,248.462c2.725,0,5.37-0.08,8.095-0.161l5.603-11.208 C168.362,460.537,95.2,366.356,95.2,255.085z"></path><path style="fill:#00B493;" d="M183.364,62.727l-0.823,3.291c21.477-18.321,46.075-33.095,72.957-43.285 c14.083-5.354,28.789-9.435,43.958-12.161c-14.275-2.549-28.949-3.949-43.958-3.949c-31.017,0-60.753,5.69-88.164,16.11v31.979 L183.364,62.727z"></path></g><path style="fill:#00BBCF;" d="M97.424,221.868c1.401-10.457,3.438-20.718,6.111-30.741c13.138-49.483,41.187-92.848,79.006-125.108 l0.823-3.291l-16.029-8.015v-31.98C93.116,50.865,35.97,113.542,15.372,191.126l47.769,23.884L97.424,221.868z"></path><g><path style="fill:#231F20;" d="M276.666,496.016l0.982-1.964l17.949-8.976v-23.811l-36.952-36.953l14.091-14.091l30.74,23.055 l82.717-45.953l-18.101-36.202l8.549-42.748L358.7,297.608l-7.756,12.928l8.832,5.3l-7.481,37.401l13.959,27.918l-61.55,34.195 l-33.38-25.035l-33.998,33.999l43.196,43.197v8.249l-14.11,7.056l-7.035,14.069c-1.126,0.023-2.245,0.041-3.376,0.041 c-64.35,0-124.851-25.061-170.356-70.568S15.077,320.351,15.077,256c0-17.912,1.977-35.693,5.872-52.994l40.226,20.113l37.06,7.413 l15.088,37.719l19.332,19.332h36.541l8.015,64.119h42.749l16.832-25.25l21.592-7.197l-4.768-14.303l-26.498,8.833l-15.226,22.84 h-21.37l-8.015-64.119h-43.607l-12.729-12.729l-16.971-42.429l-43.089-8.618l-41.297-20.648 c12.262-41.858,35.672-79.553,67.979-109.322L82.578,67.675C46.649,100.781,21.063,143.118,8.591,190.1 c-5.7,21.373-8.591,43.546-8.591,65.9c0,68.377,26.629,132.663,74.983,181.018c48.353,48.353,112.64,74.983,181.018,74.983 c2.776,0,5.379-0.077,8.137-0.159l0.197-0.006c57.319-1.824,113.016-23.226,156.833-60.263l-9.733-11.514 C372.887,472.643,326.517,491.841,276.666,496.016z"></path><path style="fill:#231F20;" d="M511.837,247.75c-2.08-66.641-29.616-128.958-77.534-175.47C386.284,25.669,322.961,0,256.001,0 c-31.298,0-61.862,5.585-90.835,16.599c-23.724,8.993-45.954,21.473-66.071,37.095l9.247,11.908 c16.013-12.436,33.451-22.745,51.958-30.753v25.437l14.788,7.394l-6.773,27.093v36.11l20.446,20.446h11.14v-15.076h-4.896 l-11.614-11.614V96.63l9.257-37.026l-17.272-8.636V28.911c25.814-9.181,52.91-13.834,80.626-13.834 c63.018,0,122.611,24.158,167.801,68.021c42.802,41.547,68.307,96.492,72.465,155.585l-24.341-4.888v-30.544l-41.087-20.543 l-17.663,17.665h-12.904v15.077h19.148l14.396-14.396l23.033,11.516v33.575l40.061,8.045c0.008,0.609,0.013,1.215,0.013,1.81 c0,64.006-24.839,124.277-69.942,169.708l10.699,10.622C485.608,388.055,512,324.012,512,256 C512.001,253.195,511.914,250.307,511.837,247.75z"></path><path style="fill:#231F20;" d="M234.153,235.253c13.385,27.528,31.537,51.882,44.39,67.445 c11.407,13.914,19.862,22.399,20.216,22.752l5.331,5.33l5.331-5.33c0.498-0.498,12.363-12.411,27.054-31.302 c15.762-20.142,36.845-51.041,47.785-83.866c4.988-15.053,7.517-29.335,7.517-42.445c0-48.35-39.337-87.687-87.687-87.687 c-19.055,0-37.187,6.032-52.435,17.442c-14.734,11.025-25.85,26.72-31.31,44.218c-2.615,8.478-3.942,17.234-3.942,26.027 c0,15.61,3.541,32.702,10.524,50.803l14.065-5.427c-6.312-16.362-9.513-31.628-9.513-45.375c0-7.284,1.101-14.546,3.265-21.559 c9.528-30.535,37.396-51.051,69.347-51.051c40.038,0,72.61,32.573,72.61,72.61c0,11.496-2.272,24.183-6.747,37.69 c-10.256,30.769-30.323,60.123-45.365,79.348c-8.309,10.682-15.76,19.128-20.499,24.285c-3.45-3.752-8.327-9.239-13.904-16.042 c-12.348-14.951-29.74-38.269-42.474-64.458L234.153,235.253z"></path><path style="fill:#231F20;" d="M343.687,167.837c0-21.835-17.763-39.598-39.598-39.598c-21.835,0-39.599,17.763-39.599,39.598 s17.764,39.598,39.599,39.598C325.924,207.435,343.687,189.67,343.687,167.837z M279.568,167.837c0-13.522,11-24.521,24.522-24.521 c13.521,0,24.521,11,24.521,24.521c0,13.522-11,24.521-24.521,24.521C290.569,192.358,279.568,181.358,279.568,167.837z"></path></g><path style="fill:#FFFFFF;" d="M116.433,417.447c31.566,27.472,69.67,48.381,113.253,62.144l4.54-14.377 c-91.388-28.859-138.641-83.798-162.189-124.803l-13.074,7.508C73.825,373.801,93.161,397.193,116.433,417.447z"></path><path style="fill:#231F20;" d="M47.613,304.09l-7.284,1.943c0.094,0.357,2.396,8.878,8.462,22.155l13.714-6.265 c-5.486-12.007-7.591-19.709-7.612-19.785L47.613,304.09z"></path><g><rect x="71.654" y="144.272" style="fill:#FFFFFF;" width="16.029" height="15.077"></rect><rect x="87.685" y="160.303" style="fill:#FFFFFF;" width="16.03" height="15.077"></rect></g><rect x="127.759" y="112.209" style="fill:#231F20;" width="16.03" height="15.077"></rect><rect x="143.79" y="176.325" style="fill:#FFFFFF;" width="16.029" height="15.077"></rect><g><rect x="392.251" y="256.481" style="fill:#231F20;" width="16.03" height="15.077"></rect><rect x="408.282" y="272.503" style="fill:#231F20;" width="16.029" height="15.077"></rect></g><g><rect x="416.303" y="336.628" style="fill:#FFFFFF;" width="16.029" height="15.077"></rect><rect x="360.198" y="424.785" style="fill:#FFFFFF;" width="16.029" height="15.077"></rect><rect x="344.167" y="440.817" style="fill:#FFFFFF;" width="16.029" height="15.077"></rect></g><g><rect x="175.853" y="224.419" style="fill:#231F20;" width="16.029" height="15.077"></rect><rect x="191.884" y="240.45" style="fill:#231F20;" width="16.03" height="15.077"></rect></g></svg>