<!-- icon666.com - MILLIONS vector ICONS FREE --><svg id="Layer_1" viewBox="0 0 512 512" xmlns="http://www.w3.org/2000/svg"><path d="m428.478 243.488h-46.599c-1.18-10.122-3.581-20.016-7.151-29.531h68.576c19.399 0 35.182-15.783 35.182-35.182 0-18.679-14.629-34.004-33.033-35.118-4.662-27.435-28.75-48.197-57.104-48.197s-52.402 20.731-57.093 48.132h-17.189c-1.444 0-2.865.098-4.264.268-16.719-7.789-34.616-11.74-53.2-11.74-40.66 0-78.795 19.637-102.494 52.628-9.711-7.281-21.731-11.597-34.644-11.597-28.33 0-52.402 20.731-57.093 48.132h-17.189c-19.4 0-35.183 15.783-35.183 35.183s15.783 35.182 35.183 35.182h15.279c-3.008 8.099-4.536 16.6-4.536 25.364 0 40.541 32.982 73.522 73.523 73.522h93.649c4.047 14.963 17.735 26.006 33.961 26.006h129.237c16.225 0 29.913-11.043 33.96-26.006h8.223c40.541 0 73.522-32.982 73.522-73.522s-32.982-73.522-73.522-73.522zm-114.411-87.896h22.499c3.146 0 5.758-2.43 5.984-5.568 1.722-23.867 21.84-42.563 45.799-42.563s44.077 18.696 45.799 42.563c.227 3.138 2.838 5.568 5.984 5.568h3.171c12.783 0 23.182 10.399 23.182 23.183s-10.399 23.182-23.182 23.182h-129.237c-12.783 0-23.183-10.399-23.183-23.182s10.4-23.183 23.183-23.183zm-268.884 124.054c-12.783 0-23.183-10.399-23.183-23.182s10.4-23.183 23.183-23.183h22.499c3.146 0 5.758-2.43 5.984-5.568 1.722-23.867 21.84-42.563 45.799-42.563s44.077 18.696 45.799 42.563c.227 3.138 2.838 5.568 5.984 5.568h3.171c12.783 0 23.182 10.399 23.182 23.183s-10.399 23.182-23.182 23.182zm341.112 124.893h-129.237c-12.783 0-23.183-10.399-23.183-23.182s10.4-23.183 23.183-23.183h22.499c3.146 0 5.758-2.43 5.984-5.568 1.722-23.867 21.84-42.563 45.799-42.563s44.077 18.696 45.799 42.563c.227 3.138 2.838 5.568 5.984 5.568h3.171c12.783 0 23.182 10.399 23.182 23.183s-10.399 23.182-23.182 23.182zm42.183-26.006h-7.123c-1.388-17.376-15.445-31.237-32.911-32.293-4.662-27.435-28.75-48.197-57.104-48.197s-52.402 20.731-57.093 48.132h-17.189c-18.448 0-33.615 14.275-35.059 32.358h-92.551c-33.924 0-61.523-27.599-61.523-61.522 0-8.847 1.877-17.368 5.534-25.364h100.96c19.399 0 35.182-15.783 35.182-35.182 0-18.679-14.629-34.004-33.033-35.118-1.832-10.78-6.672-20.521-13.583-28.385 21.376-30.591 56.326-48.842 93.616-48.842 12.739 0 25.117 2.051 36.943 6.105-8.87 6.394-14.661 16.806-14.661 28.551 0 19.399 15.783 35.182 35.183 35.182h48.185l-.366.154c4.78 11.389 7.657 23.437 8.549 35.809.227 3.138 2.838 5.568 5.984 5.568h52.058c33.924 0 61.522 27.599 61.522 61.522s-27.599 61.522-61.522 61.522z"></path></svg>