<!-- icon666.com - MILLIONS vector ICONS FREE --><svg version="1.1" id="Capa_1" xmlns="http://www.w3.org/2000/svg" xmlns:xlink="http://www.w3.org/1999/xlink" x="0px" y="0px" viewBox="0 0 512.001 512.001" style="enable-background:new 0 0 512.001 512.001;" xml:space="preserve"><g><g><path d="M511.24,193.627c-1.776-5.363-6.414-9.273-12-10.116l-159.905-24.14L268.579,8.626C266.107,3.362,260.816,0,255,0 c-5.816,0-11.107,3.362-13.578,8.627l-70.764,150.761L12.734,183.516c-5.557,0.849-10.173,4.734-11.958,10.066 c-1.784,5.331-0.438,11.213,3.488,15.237l114.724,117.585L91.863,494.612c-0.913,5.666,1.486,11.357,6.181,14.658 c4.695,3.302,10.862,3.634,15.885,0.858L255,432.146l141.072,77.982c2.266,1.252,4.764,1.872,7.256,1.872 c3.031,0,6.052-0.918,8.628-2.73c4.695-3.301,7.095-8.991,6.181-14.658l-27.113-168.131L507.65,208.906 C511.629,204.896,513.016,198.99,511.24,193.627z M364.351,310.771c-3.377,3.405-4.923,8.218-4.159,12.952l23.421,145.24 l-121.356-67.084c-2.258-1.248-4.757-1.872-7.257-1.872c-2.499,0-4.999,0.624-7.256,1.872l-121.356,67.084l23.421-145.24 c0.757-4.691-0.754-9.463-4.072-12.863L46.123,208.763l136.979-20.928c4.945-0.756,9.188-3.927,11.313-8.455L255,50.303 l60.587,129.078c2.129,4.536,6.383,7.71,11.339,8.458l138.611,20.925L364.351,310.771z"></path></g></g></svg>