<?xml version='1.0' encoding='utf-8'?>
<svg xmlns="http://www.w3.org/2000/svg" version="1.1" x="0px" y="0px" width="3000px" height="3000px" viewBox="-544.46 -447.667 3000 3000" enable-background="new -544.46 -447.667 3000 3000"> <defs> </defs> <circle fill="#A91518" cx="1012.883" cy="1012.883" r="1012.883"/> <radialGradient id="SVGID_1_" cx="1012.8838" cy="1012.8833" r="1012.8828" gradientUnits="userSpaceOnUse"> <stop offset="0" style="stop-color:#FFFFFF"/> <stop offset="0.3726" style="stop-color:#FDFDFD"/> <stop offset="0.5069" style="stop-color:#F6F6F6"/> <stop offset="0.6026" style="stop-color:#EBEBEB"/> <stop offset="0.68" style="stop-color:#DADADA"/> <stop offset="0.7463" style="stop-color:#C4C4C4"/> <stop offset="0.805" style="stop-color:#A8A8A8"/> <stop offset="0.8581" style="stop-color:#888888"/> <stop offset="0.9069" style="stop-color:#626262"/> <stop offset="0.9523" style="stop-color:#373737"/> <stop offset="0.9926" style="stop-color:#090909"/> <stop offset="1" style="stop-color:#000000"/> </radialGradient> <linearGradient id="SVGID_2_" gradientUnits="userSpaceOnUse" x1="1101.167" y1="2021.9731" x2="924.5992" y2="3.794"> <stop offset="0" style="stop-color:#FFFFFF"/> <stop offset="0.1034" style="stop-color:#D8D8D8"/> <stop offset="0.2909" style="stop-color:#979797"/> <stop offset="0.4697" style="stop-color:#616161"/> <stop offset="0.6348" style="stop-color:#373737"/> <stop offset="0.7834" style="stop-color:#191919"/> <stop offset="0.9101" style="stop-color:#070707"/> <stop offset="1" style="stop-color:#000000"/> </linearGradient> <radialGradient id="SVGID_3_" cx="1012.8838" cy="1012.8833" r="1012.8828" gradientUnits="userSpaceOnUse"> <stop offset="0" style="stop-color:#000000"/> <stop offset="0.1496" style="stop-color:#202020"/> <stop offset="0.4793" style="stop-color:#727272"/> <stop offset="0.9622" style="stop-color:#F5F5F5"/> <stop offset="1" style="stop-color:#FFFFFF"/> </radialGradient> <path d="M1023.362,1553.094c0,0,33.179-55.385,94.469-51.213c51.657,3.518,132.127,47.005,191.932,32.653 c92.482-22.194,122.26-52.389,153.686-82.697c31.428-30.308,25.703-115.951,25.703-115.951s47.494-18.11,79.849-10.856 s91.299,35.306,91.299,35.306s-18.171,98.597-30.674,163.72c-12.504,65.123-90.757,187.229-140.474,226.007 c-58.276,45.455-189.566,48.948-265.689,3.491c-63.395-37.853-81.348-99.77-205.939-18.637 c-123.391-91.041-237.339-9.212-288.377,24.641c-111.73,74.111-198.737,24.159-242.469-16.481 c-43.733-40.641-123.435-161.899-137.406-219.021c-13.971-57.12-13.899-156.356-13.899-156.356s56.342-27.635,76.789-30.681 c23.476-3.499,94.606,7.992,94.606,7.992s2.067,66.041,21.828,93.982c19.761,27.942,105.155,93.287,155.014,95.542 c49.859,2.253,112.729,8.223,161.626,0c48.898-8.225,62.869-33.331,108.273-33.331 C974.871,1501.204,1023.362,1553.094,1023.362,1553.094z"/> <path fill="#FFFFFF" d="M502.891,1462.316c0,0,10.837,27.989,23.707,40.94c12.871,12.951,31.475,25.678,39.61,39.596 c7.407,12.672,10.852,32.7,7.407,54.639c-3.444,21.939-3.087,44.785-15.171,46.293c-19.079,2.383-35.326-42.169-42.623-63.998 C507.071,1553.614,502.891,1462.316,502.891,1462.316z"/> <path fill="#FFFFFF" d="M588.635,1554.901c-14.129,8.335-7.494,27.886-2.54,54.627c8.937,48.226,17.058,52.333,29.75,79.623 c6.295,13.533,20.632,28.619,25.924,26.85c8.887-2.979-5.556-25.926-5.556-46.292c0-20.369,5.556-42.591,12.962-59.257 c7.407-16.665,20.368-27.565,0-34.152c-20.369-6.582-29.842-11.698-38.887-15.843 C602.343,1556.812,595.168,1551.045,588.635,1554.901z"/> <path fill="#FFFFFF" d="M690.532,1586.381c20.745-10.082,77.153-4.481,77.153-4.481s7.407,38.279-20.367,61.976 c-14.319,12.21-28.222,48.672-28.222,48.672s-26.71-26.447-28.564-50.259C688.68,1618.478,690.532,1586.381,690.532,1586.381z"/> <path fill="#FFFFFF" d="M741.762,1670.326c9.813-9.775,30.524-30.154,30.524-30.154s15.769,28.92,8.362,44.968 c-7.407,16.049-17.592,31.438-32.405,35.143c-14.813,3.703-22.946-15.625-21.295-20.947 C728.886,1693.081,737.124,1674.948,741.762,1670.326z"/> <path fill="#FFFFFF" d="M710.664,1708.592c-3.23-12.615-17.047-33.331-30.008-42.587c-12.963-9.261-20.37,20.369-24.072,42.587 c-3.704,22.222,17.256,29.582,33.125,25.047C705.326,1729.173,712.942,1717.495,710.664,1708.592z"/> <path fill="#FFFFFF" d="M651.027,1738.219c0,0-48.758-45.784-54.932-46.041c-6.174-0.252-12.796,33.078-12.262,53.449 c0.533,20.369,1.771,25.922,12.262,24.074c10.492-1.853,23.453-11.113,34.563-16.666 C641.77,1747.48,651.027,1738.219,651.027,1738.219z"/> <path fill="#FFFFFF" d="M530.667,1708.735c7.407,25.783,14.283,35.293,29.772,43.374c12.049,6.285,17.77-9.258,17.77-21.001 c0-27.837,11.614-32.172,11.59-49.365c-0.02-14.196-15.294-37.867-15.294-37.867s-7.477,13.094-17.324,12.981 c-9.848-0.112-19.107-9.282-19.107-9.282S523.26,1682.95,530.667,1708.735z"/> <path fill="#FFFFFF" d="M515.854,1598.415c-15.479-24.857-55.103-63.88-55.103-63.88s-12.792,57.243-7.856,91.577 c4.939,34.336,28.431,64.828,40.351,72.6c11.917,7.773,27.237,7.105,27.237,7.105s-0.926-24.689,1.853-35.491 c2.778-10.802,12.035-26.45,12.035-26.45S517.266,1600.684,515.854,1598.415z"/> <path fill="#FFFFFF" d="M777.869,1581.9l47.219-5.661c0,0,0,31.451-3.703,43.94c-3.704,12.494-7.407,44.086-7.407,44.086 s-7.406-0.472-22.221-13.073c-14.813-12.608-12.962-38.888-13.888-44.445C776.944,1601.195,777.869,1581.9,777.869,1581.9z"/> <path fill="#FFFFFF" d="M378.179,1363.454c0,0-6.419,29.155-4.95,53.468c1.466,24.309,56.527,65.669,56.527,65.669 s-4.561-31.101-13.744-52.411c-10.654-24.704-7.916-48.396-6.148-67.515C411.4,1346.071,378.179,1363.454,378.179,1363.454z"/> <path fill="#FFFFFF" d="M415.861,1360.493c0,0,19.752-12.672,35.184-12.981c20.697-0.417,32.813,8.502,35.181,20.986 c2.074,10.936-3.703,27.157-3.703,41.97c0,14.813-1.852,59.257,1.853,77.771c3.703,18.521-54.4-39.07-61.107-64.498 C415.861,1395.655,415.861,1360.493,415.861,1360.493z"/> <path fill="#FFFFFF" d="M415.861,1501.204c14.813,12.961,29.923,20.365,32.554,29.626c2.63,9.258-6.629,22.431-6.629,49.175 c0,26.742,5.78,63.871,5.78,63.871s-31.705-17.764-42.481-42.681c-14.158-32.74-5.22-44.443-3.702-55.552 C402.899,1534.535,415.861,1501.204,415.861,1501.204z"/> <path fill="#FFFFFF" d="M936.044,1549.188c-21.272,31.159-22.835,44.912,0.324,94.403c14.218,30.384,77.539,67.03,77.539,67.03 s-6.283-96.718,0-128.148C1020.189,1551.042,936.044,1549.188,936.044,1549.188z"/> <path fill="#FFFFFF" d="M834.755,1560.469c0,0,21.712-11.783,42.668-16.255s51.635,4.974,51.635,4.974s-22.812,42.382-20.956,60.586 c3.476,34.102-21.83,70.686-21.83,70.686s-40.167-31.919-50.645-60.208C828.155,1600.077,834.755,1560.469,834.755,1560.469z"/> <path fill="none" stroke="#000000" stroke-width="14.8136" stroke-miterlimit="10" d="M413.032,760.522 c0,0-43.208,14.813-75.305,59.253c-32.094,44.44-48.437,106.167-43.205,167.888c6.223,73.395,59.974,116.385,99.109,146.012 c39.138,29.626,96.651,77.43,145.056,84.835c48.405,7.408,140.987,0,182.961-29.627c41.972-29.627,59.856-49.393,76.538-77.924 c16.681-28.531,4.939-44.286-7.407-68.978c-12.346-24.691-161.186-150.422-192.578-172.828 C545.506,831.542,413.032,760.522,413.032,760.522z"/> <path fill="#FFFFFF" d="M413.032,760.522c0,0-43.208,14.813-75.305,59.253c-32.094,44.44-48.437,106.167-43.205,167.888 c6.223,73.395,59.974,116.385,99.109,146.012c39.138,29.626,96.651,77.43,145.056,84.835c48.405,7.408,140.987,0,182.961-29.627 c41.972-29.627,59.856-49.393,76.538-77.924c16.681-28.531,4.939-44.286-7.407-68.978 c-12.346-24.691-161.186-150.422-192.578-172.828C545.506,831.542,413.032,760.522,413.032,760.522z"/> <circle cx="640.682" cy="1070.997" r="53.063"/> <path d="M938.636,1071.922c0,0-46.29,46.287-90.728-3.705c-44.44-49.992-274.038-283.965-351.806-355.84 c-77.767-71.879-142.575-125.576-214.79-120.022c-72.212,5.556-149.978,161.087-149.978,188.863 c0,27.775,22.218,27.448,22.218,27.448s72.213-77.438,149.981-44.109c77.767,33.327,246.469,125.638,327.734,183.309 c73.743,52.333,146.631,116.397,188.866,142.569C909.289,1145.674,938.636,1071.922,938.636,1071.922z"/> <g> <g> <path fill="#333334" d="M165.689,1072.657c3.889-1.645,6.388-2.221,10.248-3.182c9.978-2.482,20.248-3.78,30.511-4.228 c38.018-1.656,75.611,8.657,109.678,24.987c26.286,12.6,50.518,29.128,73.024,47.573c22.79,18.677,45.211,37.831,67.529,57.069 c27.629,23.816,54.99,47.972,81.63,72.895c6.713,6.28,13.44,12.57,19.914,19.099c2.817,2.841,9.504-0.596,5.892-4.238 c-38.137-38.46-79.924-73.669-121.104-108.756c-23.566-20.078-46.891-40.827-72.123-58.808 c-21.448-15.284-44.556-28.385-69.004-38.222c-32.604-13.118-68.146-20.138-103.325-17.25 c-12.264,1.006-25.458,2.818-36.907,7.661C156.693,1069.354,161.783,1074.309,165.689,1072.657L165.689,1072.657z"/> </g> </g> <g> <g> <path fill="#333334" d="M537.242,1354.96c-16.252-9.925-36.939-13.753-55.425-16.885c-23.895-4.049-49.449-6.124-73.469-1.939 c-18.784,3.271-36.9,12.121-53.833,20.523c-15.058,7.472-29.756,15.687-44.17,24.33c-2.024,1.214-4.046,2.431-6.048,3.681 c-4.3,2.685,2.582,6.323,5.868,4.271c25.939-16.193,53.513-31.326,82.282-41.794c21.159-7.698,43.639-7.891,65.861-5.889 c22.189,1.999,45.292,5.997,65.972,14.571c2.477,1.027,4.928,2.168,7.218,3.567 C534.819,1361.426,541.581,1357.611,537.242,1354.96L537.242,1354.96z"/> </g> </g> <path fill="#FFFFFF" d="M1489.151,1451.837c0,0-10.839,27.989-23.705,40.94c-12.872,12.951-31.474,25.677-39.612,39.597 c-7.405,12.672-10.85,32.699-7.405,54.639c3.444,21.938,3.088,44.783,15.172,46.291c19.076,2.385,35.326-42.167,42.624-63.998 C1484.972,1543.136,1489.151,1451.837,1489.151,1451.837z"/> <path fill="#FFFFFF" d="M1403.411,1544.42c14.128,8.338,7.489,27.889,2.539,54.63c-8.938,48.225-17.06,52.333-29.751,79.622 c-6.297,13.535-20.636,28.621-25.927,26.851c-8.885-2.979,5.557-25.927,5.557-46.292c0-20.369-5.557-42.592-12.959-59.257 c-7.41-16.666-20.371-27.565,0-34.153c20.368-6.582,29.836-11.698,38.882-15.843 C1389.699,1546.336,1396.875,1540.569,1403.411,1544.42z"/> <path fill="#FFFFFF" d="M1301.513,1575.905c-20.745-10.084-77.152-4.482-77.152-4.482s-7.407,38.279,20.365,61.975 c14.318,12.21,28.222,48.673,28.222,48.673s26.712-26.448,28.565-50.259C1303.363,1608,1301.513,1575.905,1301.513,1575.905z"/> <path fill="#FFFFFF" d="M1250.281,1659.848c-9.812-9.775-30.524-30.156-30.524-30.156s-15.768,28.921-8.363,44.969 c7.409,16.049,17.594,31.438,32.406,35.143c14.814,3.703,22.945-15.625,21.295-20.946 C1263.157,1682.602,1254.92,1664.47,1250.281,1659.848z"/> <path fill="#FFFFFF" d="M1281.378,1698.115c3.232-12.618,17.049-33.332,30.008-42.588c12.965-9.261,20.371,20.369,24.074,42.588 c3.705,22.222-17.255,29.581-33.127,25.046C1286.718,1718.696,1279.1,1707.016,1281.378,1698.115z"/> <path fill="#FFFFFF" d="M1341.016,1727.741c0,0,48.759-45.783,54.933-46.039c6.174-0.253,12.797,33.078,12.263,53.447 c-0.532,20.369-1.771,25.922-12.263,24.074c-10.493-1.853-23.452-11.113-34.565-16.666 C1350.272,1737,1341.016,1727.741,1341.016,1727.741z"/> <path fill="#FFFFFF" d="M1461.374,1698.257c-7.404,25.784-14.28,35.292-29.77,43.372c-12.048,6.287-17.771-9.256-17.771-21 c0-27.836-11.613-32.172-11.589-49.365c0.019-14.195,15.294-37.867,15.294-37.867s7.476,13.094,17.323,12.981 c9.846-0.112,19.107-9.28,19.107-9.28S1468.782,1672.472,1461.374,1698.257z"/> <path fill="#FFFFFF" d="M1476.192,1587.937c15.478-24.858,55.101-63.882,55.101-63.882s12.794,57.245,7.856,91.577 c-4.938,34.337-28.434,64.832-40.351,72.601c-11.918,7.772-27.238,7.105-27.238,7.105s0.927-24.688-1.85-35.49 c-2.779-10.803-12.037-26.451-12.037-26.451S1474.779,1590.205,1476.192,1587.937z"/> <path fill="#FFFFFF" d="M1221.159,1571.422l-47.215-5.662c0,0,0,31.45,3.699,43.941c3.704,12.494,7.405,44.085,7.405,44.085 s7.409-0.47,22.226-13.073c14.81-12.605,12.961-38.887,13.885-44.442C1222.084,1590.718,1221.159,1571.422,1221.159,1571.422z"/> <path fill="#FFFFFF" d="M1613.866,1352.974c0,0,6.419,29.156,4.95,53.47c-1.468,24.308-56.528,65.668-56.528,65.668 s4.56-31.1,13.745-52.41c10.652-24.705,7.913-48.397,6.146-67.516C1580.646,1335.592,1613.866,1352.974,1613.866,1352.974z"/> <path fill="#FFFFFF" d="M1576.184,1350.013c0,0-19.756-12.671-35.186-12.98c-20.698-0.417-32.813,8.503-35.179,20.987 c-2.076,10.935,3.703,27.156,3.703,41.97s1.85,59.257-1.855,77.771c-3.702,18.52,54.402-39.072,61.108-64.5 C1576.184,1385.176,1576.184,1350.013,1576.184,1350.013z"/> <path fill="#FFFFFF" d="M1576.184,1490.725c-14.816,12.961-29.927,20.366-32.554,29.627c-2.632,9.256,6.627,22.43,6.627,49.173 c0,26.746-5.781,63.872-5.781,63.872s31.708-17.765,42.483-42.679c14.158-32.741,5.222-44.444,3.7-55.554 C1589.145,1524.055,1576.184,1490.725,1576.184,1490.725z"/> <path fill="#FFFFFF" d="M1085.844,1549.188c27.927,22.527,30.146,44.912,6.986,94.403c-14.22,30.384-74.046,67.03-74.046,67.03 s6.282-96.718,0-128.148C1012.502,1551.042,1085.844,1549.188,1085.844,1549.188z"/> <path fill="#FFFFFF" d="M1092.343,1549.188c0,0,26.836-10.94,44.437-6.176c13.343,3.612,33.275,20.95,33.275,20.95 s2.433,33.922,0.396,65.502c-2.036,31.58-50.165,52.605-50.165,52.605s3.491-34.347,3.491-45.62 c0-20.131-3.491-45.524-11.351-59.594C1105.263,1564.03,1092.343,1549.188,1092.343,1549.188z"/> <path fill="none" stroke="#000000" stroke-width="14.8136" stroke-miterlimit="10" d="M1579.012,760.522 c0,0,43.208,14.813,75.305,59.253c32.092,44.44,48.437,106.167,43.205,167.888c-6.222,73.395-59.974,116.385-99.109,146.012 c-39.14,29.626-96.654,77.43-145.056,84.835c-48.404,7.408-140.988,0-182.963-29.627c-41.973-29.627-59.855-49.393-76.537-77.924 c-16.68-28.531-4.939-44.286,7.408-68.978c12.346-24.691,161.185-150.422,192.576-172.828 C1446.537,831.542,1579.012,760.522,1579.012,760.522z"/> <path fill="#FFFFFF" d="M1579.012,760.522c0,0,43.208,14.813,75.305,59.253c32.092,44.44,48.437,106.167,43.205,167.888 c-6.222,73.395-59.974,116.385-99.109,146.012c-39.14,29.626-96.654,77.43-145.056,84.835c-48.404,7.408-140.988,0-182.963-29.627 c-41.973-29.627-59.855-49.393-76.537-77.924c-16.68-28.531-4.939-44.286,7.408-68.978 c12.346-24.691,161.185-150.422,192.576-172.828C1446.537,831.542,1579.012,760.522,1579.012,760.522z"/> <circle cx="1360.179" cy="1081.475" r="53.063"/> <path d="M1053.407,1071.922c0,0,46.289,46.287,90.729-3.705c44.44-49.992,274.037-283.965,351.804-355.84 c77.769-71.879,142.577-125.576,214.791-120.022c72.211,5.556,149.979,161.087,149.979,188.863 c0,27.775-22.219,27.448-22.219,27.448s-72.214-77.438-149.982-44.109c-77.767,33.327-246.466,125.638-327.734,183.309 c-73.742,52.333-146.631,116.397-188.864,142.569C1082.755,1145.674,1053.407,1071.922,1053.407,1071.922z"/> <g> <g> <path fill="#333334" d="M1829.289,1068.66c-12.813-5.419-27.825-7.119-41.548-7.895c-36.656-2.071-73.281,6.609-106.721,21.238 c-53.496,23.401-96.888,63.055-140.755,100.604c-29.703,25.426-59.109,51.226-87.767,77.83 c-8.488,7.881-17.004,15.771-25.161,23.998c-3.014,3.039,4.32,6.693,7.074,3.916c38.333-38.658,80.372-74.02,121.776-109.271 c23.606-20.098,46.967-40.868,72.318-58.759c21.662-15.287,44.993-28.244,69.752-37.778 c31.656-12.189,66.157-18.377,100.04-14.606c9.787,1.09,19.991,2.725,29.16,6.603 C1832.216,1076.551,1833.919,1070.618,1829.289,1068.66L1829.289,1068.66z"/> </g> </g> <g> <g> <path fill="#333334" d="M1687.684,1374.108c-25.852-16.139-53.216-31.205-81.763-41.955c-20.24-7.623-40.806-9.287-62.337-8.231 c-23.634,1.159-47.652,5.101-70.156,12.503c-6.479,2.131-12.851,4.575-18.688,8.14c-1.685,1.027-1.366,3.314,0.062,4.354 c1.776,1.293,4.041,0.995,5.806-0.083c7.009-4.278,15.296-6.728,23.126-8.969c11.36-3.251,23-5.532,34.68-7.271 c22.913-3.41,48.124-5.285,70.753,0.757c19.234,5.136,37.558,14.513,55.103,23.722c12.34,6.476,24.477,13.37,36.355,20.657 c0.439,0.27,0.878,0.54,1.315,0.813C1685.249,1380.611,1692.003,1376.804,1687.684,1374.108L1687.684,1374.108z"/> </g> </g> </svg>