<!-- icon666.com - MILLIONS vector ICONS FREE --><svg version="1.1" id="Capa_1" xmlns="http://www.w3.org/2000/svg" xmlns:xlink="http://www.w3.org/1999/xlink" x="0px" y="0px" viewBox="0 0 512.002 512.002" style="enable-background:new 0 0 512.002 512.002;" xml:space="preserve"><circle style="fill:#23A24D;" cx="401.067" cy="401.068" r="102.4"></circle><circle style="fill:#BE7C6D;" cx="256" cy="110.934" r="102.4"></circle><circle style="fill:#EBBA16;" cx="110.933" cy="401.068" r="102.4"></circle><path style="fill:#DD352E;" d="M51.2,102.401c-4.71,0-8.533-3.814-8.533-8.533c0-18.825-15.309-34.133-34.133-34.133 C3.823,59.734,0,55.92,0,51.201s3.823-8.533,8.533-8.533c18.825,0,34.133-15.309,34.133-34.133c0-4.719,3.823-8.533,8.533-8.533 s8.533,3.814,8.533,8.533c0,18.825,15.309,34.133,34.133,34.133c4.71,0,8.533,3.814,8.533,8.533s-3.823,8.533-8.533,8.533 c-18.825,0-34.133,15.309-34.133,34.133C59.733,98.587,55.91,102.401,51.2,102.401z M36.804,51.201 c5.7,3.789,10.607,8.695,14.396,14.396c3.789-5.7,8.695-10.607,14.396-14.396c-5.7-3.789-10.607-8.695-14.396-14.396 C47.411,42.506,42.505,47.412,36.804,51.201z"></path><g><path style="fill:#4D007E;" d="M418.133,460.801h-51.2c-4.71,0-8.533-3.814-8.533-8.533s3.823-8.533,8.533-8.533h51.2 c9.412,0,17.067-7.654,17.067-17.067c0-9.412-7.654-17.067-17.067-17.067H384c-18.825,0-34.133-15.309-34.133-34.133 c0-18.825,15.309-34.133,34.133-34.133h51.2c4.71,0,8.533,3.814,8.533,8.533c0,4.719-3.823,8.533-8.533,8.533H384 c-9.412,0-17.067,7.654-17.067,17.067c0,9.412,7.654,17.067,17.067,17.067h34.133c18.825,0,34.133,15.309,34.133,34.133 S436.958,460.801,418.133,460.801z"></path><path style="fill:#4D007E;" d="M401.067,477.868c-4.71,0-8.533-3.814-8.533-8.533V332.801c0-4.719,3.823-8.533,8.533-8.533 s8.533,3.814,8.533,8.533v136.533C409.6,474.053,405.777,477.868,401.067,477.868z"></path><path style="fill:#4D007E;" d="M401.067,512.001c-61.167,0-110.933-49.766-110.933-110.933S339.9,290.134,401.067,290.134 S512,339.901,512,401.068S462.234,512.001,401.067,512.001z M401.067,307.201c-51.755,0-93.867,42.112-93.867,93.867 s42.112,93.867,93.867,93.867s93.867-42.112,93.867-93.867S452.821,307.201,401.067,307.201z"></path><path style="fill:#4D007E;" d="M256,221.868c-61.167,0-110.933-49.766-110.933-110.933S194.833,0.001,256,0.001 s110.933,49.766,110.933,110.933S317.167,221.868,256,221.868z M256,17.068c-51.755,0-93.867,42.112-93.867,93.867 s42.112,93.867,93.867,93.867s93.867-42.112,93.867-93.867S307.755,17.068,256,17.068z"></path><path style="fill:#4D007E;" d="M110.933,512.001C49.766,512.001,0,462.235,0,401.068s49.766-110.933,110.933-110.933 s110.933,49.766,110.933,110.933S172.1,512.001,110.933,512.001z M110.933,307.201c-51.755,0-93.867,42.112-93.867,93.867 s42.112,93.867,93.867,93.867s93.867-42.112,93.867-93.867S162.688,307.201,110.933,307.201z"></path><path style="fill:#4D007E;" d="M110.404,469.334c-29.833,0-50.671-28.075-50.671-68.267s20.838-68.267,50.671-68.267 c16.077,0,29.926,6.758,41.19,20.087c3.038,3.61,2.586,8.994-1.015,12.023c-3.601,3.055-8.986,2.594-12.023-1.007 c-7.987-9.446-17.195-14.037-28.151-14.037c-23.091,0-33.604,26.539-33.604,51.2c0,24.661,10.513,51.2,33.604,51.2 c10.863,0,20.079-4.608,28.177-14.071c3.063-3.575,8.457-4.002,12.032-0.939c3.584,3.055,4.002,8.439,0.939,12.023 C140.177,462.585,126.327,469.334,110.404,469.334z"></path><path style="fill:#4D007E;" d="M110.933,392.534H51.2c-4.71,0-8.533-3.814-8.533-8.533c0-4.719,3.823-8.533,8.533-8.533h59.733 c4.71,0,8.533,3.814,8.533,8.533C119.467,388.72,115.644,392.534,110.933,392.534z"></path><path style="fill:#4D007E;" d="M110.933,426.668H51.2c-4.71,0-8.533-3.814-8.533-8.533s3.823-8.533,8.533-8.533h59.733 c4.71,0,8.533,3.814,8.533,8.533S115.644,426.668,110.933,426.668z"></path><path style="fill:#4D007E;" d="M477.867,281.601c-4.71,0-8.533-3.814-8.533-8.533c0-8.26-0.435-16.546-1.297-24.653 c-0.495-4.685,2.901-8.883,7.586-9.387c4.753-0.495,8.892,2.901,9.395,7.586c0.913,8.695,1.382,17.596,1.382,26.453 C486.4,277.787,482.577,281.601,477.867,281.601z M472.414,230.785c-3.917,0-7.45-2.714-8.329-6.699 c-1.766-8.021-4.002-16.009-6.639-23.706c-1.527-4.454,0.845-9.31,5.308-10.846c4.454-1.519,9.31,0.853,10.837,5.308 c2.85,8.311,5.265,16.913,7.168,25.574c1.015,4.599-1.894,9.156-6.502,10.163C473.634,230.717,473.02,230.785,472.414,230.785z M455.817,182.478c-3.174,0-6.221-1.783-7.697-4.83c-3.558-7.407-7.578-14.626-11.93-21.461c-2.534-3.977-1.374-9.25,2.603-11.785 c3.968-2.526,9.25-1.365,11.785,2.603c4.727,7.407,9.079,15.223,12.937,23.245c2.039,4.25,0.256,9.353-3.994,11.392 C458.317,182.213,457.062,182.478,455.817,182.478z M428.348,139.419c-2.466,0-4.907-1.058-6.588-3.106 c-5.18-6.289-10.812-12.331-16.725-17.954c-3.413-3.251-3.558-8.653-0.316-12.066s8.653-3.558,12.066-0.316 c6.426,6.101,12.527,12.655,18.15,19.482c2.995,3.644,2.475,9.02-1.161,12.015C432.179,138.787,430.259,139.419,428.348,139.419z"></path><path style="fill:#4D007E;" d="M34.133,281.601c-4.71,0-8.533-3.814-8.533-8.533c0-8.858,0.469-17.758,1.391-26.453 c0.495-4.693,4.719-8.115,9.387-7.586c4.685,0.503,8.081,4.702,7.586,9.387c-0.862,8.107-1.297,16.393-1.297,24.653 C42.667,277.787,38.844,281.601,34.133,281.601z M39.586,230.785c-0.606,0-1.22-0.068-1.843-0.196 c-4.608-1.007-7.518-5.555-6.502-10.163c1.903-8.661,4.318-17.263,7.168-25.574c1.527-4.454,6.391-6.801,10.837-5.308 c4.454,1.536,6.835,6.383,5.299,10.846c-2.645,7.697-4.881,15.676-6.639,23.706C47.036,228.071,43.503,230.785,39.586,230.785z M56.183,182.478c-1.237,0-2.5-0.265-3.686-0.845c-4.25-2.039-6.042-7.142-3.994-11.392c3.849-8.004,8.201-15.821,12.937-23.245 c2.534-3.968,7.817-5.129,11.785-2.603c3.977,2.534,5.137,7.808,2.603,11.785c-4.369,6.844-8.38,14.054-11.938,21.461 C62.413,180.694,59.358,182.478,56.183,182.478z M83.652,139.419c-1.911,0-3.831-0.631-5.419-1.954 c-3.635-2.995-4.156-8.363-1.161-12.006c5.632-6.835,11.733-13.389,18.15-19.482c3.422-3.234,8.823-3.098,12.066,0.316 c3.243,3.413,3.106,8.815-0.307,12.066c-5.914,5.606-11.537,11.648-16.725,17.954C88.559,138.361,86.118,139.419,83.652,139.419z"></path><path style="fill:#4D007E;" d="M51.2,102.401c-4.71,0-8.533-3.814-8.533-8.533c0-18.825-15.309-34.133-34.133-34.133 C3.823,59.734,0,55.92,0,51.201s3.823-8.533,8.533-8.533c18.825,0,34.133-15.309,34.133-34.133c0-4.719,3.823-8.533,8.533-8.533 s8.533,3.814,8.533,8.533c0,18.825,15.309,34.133,34.133,34.133c4.71,0,8.533,3.814,8.533,8.533s-3.823,8.533-8.533,8.533 c-18.825,0-34.133,15.309-34.133,34.133C59.733,98.587,55.91,102.401,51.2,102.401z M36.804,51.201 c5.7,3.789,10.607,8.695,14.396,14.396c3.789-5.7,8.695-10.607,14.396-14.396c-5.7-3.789-10.607-8.695-14.396-14.396 C47.411,42.506,42.505,47.412,36.804,51.201z"></path><path style="fill:#4D007E;" d="M469.333,119.468c-2.185,0-4.369-0.836-6.033-2.5c-3.337-3.337-3.337-8.73,0-12.066l34.133-34.133 c3.337-3.337,8.73-3.337,12.066,0s3.337,8.73,0,12.066l-34.133,34.133C473.702,118.631,471.518,119.468,469.333,119.468z"></path><path style="fill:#4D007E;" d="M503.467,119.468c-2.185,0-4.369-0.836-6.033-2.5L463.3,82.834c-3.337-3.337-3.337-8.73,0-12.066 s8.73-3.337,12.066,0l34.133,34.133c3.337,3.337,3.337,8.73,0,12.066C507.836,118.631,505.651,119.468,503.467,119.468z"></path><path style="fill:#4D007E;" d="M281.6,170.668h-68.267c-4.71,0-8.533-3.814-8.533-8.533s3.823-8.533,8.533-8.533 c9.412,0,17.067-7.654,17.067-17.067V76.801c0-18.825,15.309-34.133,34.133-34.133s34.133,15.309,34.133,34.133 c0,4.719-3.823,8.533-8.533,8.533c-4.71,0-8.533-3.814-8.533-8.533c0-9.412-7.654-17.067-17.067-17.067 c-9.412,0-17.067,7.654-17.067,17.067v59.733c0,6.212-1.673,12.041-4.582,17.067H281.6c4.702,0,8.533-3.823,8.533-8.533 c0-4.719,3.823-8.533,8.533-8.533s8.533,3.814,8.533,8.533C307.2,159.182,295.714,170.668,281.6,170.668z"></path><path style="fill:#4D007E;" d="M256,119.468h-34.133c-4.71,0-8.533-3.814-8.533-8.533c0-4.719,3.823-8.533,8.533-8.533H256 c4.71,0,8.533,3.814,8.533,8.533C264.533,115.653,260.71,119.468,256,119.468z"></path></g></svg>