<?xml version="1.0" encoding="UTF-8"?>
<svg enable-background="new 0 0 1482.868 1670" version="1.1" viewBox="0 0 1482.868 1670" xmlns="http://www.w3.org/2000/svg">
 <path d="m1289.3 241.75c-31.044-116.88-128.67-190.9-262.98-204.94-11.675-1.22-23.029-1.811-34.099-1.811-116.75 0-199.82 65.926-247.31 156.03-49.617-94.039-134.31-155.03-257.8-155.03-8.172 0-16.523 0.268-25.036 0.81-122.82 7.828-228.32 78.843-261.57 217.28-59.795 249.02 223.23 503.58 544.4 751.22 341.56-245.96 608.03-523.96 544.4-763.56z" enable-background="new " fill="#f00"/>
 <path d="m490.94 153.98c8.222 1.764 44.182 72.752 47.912 80.153-6.259-15.759-24.856-71.56-5.099-67.755 1.027 0.209 1.549 1.219 1.971 2.075 5.425 12.116 0.418 31.65 23.722 75.664 28.649 53.683 71.338 68.518 150.55 133.4 30.385 24.992 44.466 44.864 78.616 86.12 5.892-14.882 13.404-29.038 20.34-43.44 8.609-18.773 19.896-47.821 32.358-58.243 5.564-4.598 12.083-5.415 15.659 2.205 1.445 2.768 2.08 6.076 4.405 8.301 0.308-9.357-14.45-47.757 4.919-64.51 1.537-1.286 3.27-3.115 5.487-2.451 7.594 2.034 17.546 15.611 21.137 23.793-3.525-15.778-10.946-49.952 0.163-60.869 10.971-10.387 22.475 7.758 28.491 21.509 0.125-0.042 0.367-0.117 0.489-0.155l-0.597-0.388c-2.208-8.857-19.029-53.042-3.975-63.88 18.742-14.114 17.875 16.559 31.406 36.734-1.157-6.162-18.065-69.997 10.736-74.916 16.107-2.864 14.102 43.878 18.979 58.606 4.788-19.956-0.11-41.715 5.562-58.986 3.334-10.601 7.431-27.951 19.63-30.232 9.182-1.367 12.547 4.332 11.5 12.665-4.599 39.485 2.954 53.544 3.023 83.539 9.484-61.37 11.694-64.154 19.517-73.68 21.851-24.957 19.87 14.183 22.085 32.328 14.262 124.91-59.207 146.13-150.88 260.73-3.633 4.635-7.166 9.521-9.032 15.166-1.553 4.643-1.846 9.617-1.474 14.469 53.218-3.511 37.497-12.896 63.792-19.238 15.765-3.889 36.576 1.825 43.44 7.445 12.154 9.619 16.545 30.169 12.84 45.423 3.391 10.627 4.535 22.06 2.652 33.092-5.654-5.641-11.299-11.362-17.768-16.085-6.609-4.457-16.851-5.052-18.749-3.821-35.243 21.235-33.135 26.129-58.948 36.755-38.567 16.044-25.99 25.793-97.498 53.065-60.768 22.488-60.966 11.041-138.57 14.92-73.646 3.55-144.64 36.07-205.91 36.07-15.056-0.175-33.88-1.026-43.678-12.16-3.633-3.983-10.815-16.645-10.711-20.269 0.25-16.667 61.057-19.061 97.954-27.869 38.015-9.998 33.006-15.698 82.808-48.768 5.875-4.055 11.984-7.758 17.851-11.821-46.363-22.409-132.92-87.666-114.63-167.24-21.567-1.421-52.558-11.61-52.038-26.962 1.627-5.244 21.389-7.006 26.896-7.299-28.541-8.948-29.686-25.173-24.708-29.293 5.62-4.753 20.272-0.676 31.251-0.818-17.507-5.207-50.086-32.142-34.867-38.3 7.808-3.132 24.653 8.065 34.759 7.767-13.7-3.744-46.436-24.972-43.753-43.089 0.892-7.312 14.67-3.071 24.674-0.564-28.31-11.639-26.194-34.201-20.615-35.059 7.008-0.756 19.299 12.462 25.104 15.195-12.295-13.211-33.423-38.455-22.62-53.198 3.581-5.005 24.27 19.106 29.664 22.453-5.628-6.724-30.164-45.557-22.486-52.869 3.157-2.672 5.416-0.281 10.143 5.683 9.948 13.002 29.62 45.7 35.995 50.848-7.528-12.036-33.262-57.8-19.879-61.943z" fill="#fff"/>
 <path d="m1236.1 1125c36.915-15.291 156.83-163.3 97.537-231.13-13.12-15.008-17.156-31.646-16.768-49.445 2.246-102.98-29.295-168.61-21.433-301.36 2.934-49.541 52.323-74.273 69.183-31.414 5.067 12.882 6.856 26.446 10.029 39.75 19.936 83.56 28.103 168.82 40.044 253.63 17.803 126.46-18.602 318.83-31.368 354.4-48.692 135.66-159.95 156.7-235.59 261.74-70.003 97.212-48.229 187.34-95.791 201.74-75.928 22.99-141.58 16.087-197.6-44.833-25.761-28.014-26.572-33.395-8.852-66.574 16.79-31.437 32.41-63.181 35.884-99.49 5.63-58.836-11.764-141.05 72.85-187.51 40.077-22.004 81.571-41.937 116.76-72.67 98.484-86.025 115.76-159.16 159.92-206.87 91.164-98.516 151.83-1.493 25.998 150.67-7.621 9.218-13.898 19.546-20.792 29.365z"/>
 <path d="m1295.5 873.19c-7.715-0.478-12.653-5.053-15.175-12.136 0 0-62.2-179.17-62.345-179.67-22.534-76.517 54.746-128.54 62.127-64.947 7.964 68.609 15.601 137.25 20.471 206.18 0.307 4.349 11.87 51.623-5.078 50.573z"/>
 <path d="m1204.4 698.99c22.679 52.739 41.37 106.96 59.227 161.47 3.822 11.668 3.904 22.506-4.333 32.891-10.531 13.276-18.191 12.561-27.725-1.436-18.02-26.455-61.215-124.22-68.744-143.46-19.151-48.97 20.789-97.801 41.575-49.466z"/>
 <path d="m1175 808.04c87.595 133.74 34.149 141.83 28.89 132.9-25.471-43.227-99.392-121.46-74.31-157.85 18.483-26.815 40.179 16.95 45.42 24.953z"/>
 <path d="m226.02 1095.6c-125.83-152.16-65.166-249.19 25.998-150.67 44.153 47.713 61.431 120.84 159.92 206.87 35.184 30.734 76.679 50.667 116.76 72.67 84.615 46.456 67.22 128.67 72.85 187.51 3.474 36.309 19.094 68.053 35.884 99.49 17.72 33.179 16.908 38.56-8.852 66.574-56.024 60.92-121.68 67.822-197.6 44.833-47.562-14.401-25.788-104.53-95.791-201.74-75.639-105.04-186.9-126.08-235.59-261.74-12.766-35.568-49.171-227.94-31.368-354.4 11.941-84.815 20.108-170.07 40.044-253.63 3.174-13.304 4.962-26.868 10.03-39.75 16.861-42.859 66.249-18.127 69.183 31.414 7.862 132.76-23.68 198.39-21.433 301.36 0.388 17.799-3.648 34.437-16.768 49.445-59.294 67.829 60.621 215.84 97.537 231.13-6.893-9.818-13.171-20.146-20.793-29.365z"/>
 <path d="m182.27 822.62c4.87-68.928 12.507-137.57 20.471-206.18 7.381-63.589 84.661-11.57 62.127 64.947-0.145 0.494-62.345 179.67-62.345 179.67-2.522 7.083-7.46 11.658-15.175 12.136-16.948 1.05-5.385-46.224-5.078-50.573z"/>
 <path d="m320.03 748.46c-7.528 19.249-50.723 117.01-68.744 143.46-9.534 13.996-17.195 14.712-27.725 1.436-8.237-10.385-8.155-21.222-4.333-32.891 17.857-54.518 36.548-108.74 59.227-161.47 20.786-48.334 60.727 0.497 41.575 49.466z"/>
 <path d="m353.32 783.09c25.082 36.39-48.839 114.63-74.31 157.85-5.258 8.924-58.705 0.842 28.89-132.9 5.241-8.003 26.937-51.768 45.42-24.953z"/>
</svg>
