<!-- icon666.com - MILLIONS vector ICONS FREE --><svg id="Layer_1" enable-background="new 0 0 512.503 512.503" viewBox="0 0 512.503 512.503" xmlns="http://www.w3.org/2000/svg"><g><path d="m158.883 174.12c-6.291 0-15.802 13.361-15.802 33.501s9.511 33.501 15.802 33.501 15.802-13.361 15.802-33.501-9.512-33.501-15.802-33.501z"></path><path d="m256.312.004c-149.397-.796-268.749 129.85-255.272 278.44 8.421-2.804 29.154-8.526 56.169-7.701 62.686-1.147 143.79 52.247 169.811 126.277 66.781 13.7 128.217-26.009 154.189-71.43 4.217-7.702 13.88-10.564 21.594-6.372 7.715 4.192 10.596 13.815 6.427 21.543-26.113 46.859-92.319 99.238-173.323 89.562 5.739 28.706.195 67.441-4.78 80.84 149.471 15.435 282.259-104.537 281.37-254.973.001-141.488-114.697-256.186-256.185-256.186zm-97.429 272.983c-26.73 0-47.668-28.712-47.668-65.366 1.537-86.638 93.805-86.626 95.335.001 0 36.653-20.938 65.365-47.667 65.365zm193.098 0c-26.729 0-47.667-28.712-47.667-65.366 1.537-86.639 93.804-86.625 95.335.001 0 36.653-20.938 65.365-47.668 65.365z"></path><path d="m351.981 174.12c-6.29 0-15.801 13.361-15.801 33.501s9.511 33.501 15.801 33.501c6.291 0 15.802-13.361 15.802-33.501s-9.511-33.501-15.802-33.501z"></path><path d="m34.262 303.618 171.36 173.27c.761-7.036 1.154-15.193.717-24.12-.608-12.413-2.664-24.404-6.138-35.947-.292-.729-.513-1.486-.695-2.256-24.58-77.272-107.183-121.374-165.244-110.947z"></path></g></svg>